<svg width="222" height="177" viewBox="0 0 222 177" version="1.1" xmlns="http://www.w3.org/2000/svg" xmlns:xlink="http://www.w3.org/1999/xlink">
<title>deadline</title>
<desc>Created using Figma</desc>
<g id="Canvas" transform="translate(1274 321)">
<g id="deadline">
<g id="eadline">
<use xlink:href="#path0_fill" transform="translate(-1191 -277)"/>
</g>
<g id="Mask Group">
<mask id="mask0_alpha" mask-type="alpha">
<g id="deadline">
<g id="d">
<use xlink:href="#path1_fill" transform="translate(-1267 -309)"/>
</g>
<g id="d">
<use xlink:href="#path1_fill" transform="translate(-1267 -310)" fill="#FFFFFF"/>
</g>
<g id="d">
<use xlink:href="#path1_fill" transform="translate(-1264 -316)"/>
</g>
</g>
</mask>
<g id="Rectangle" mask="url(#mask0_alpha)">
<use xlink:href="#path2_fill" transform="translate(-1390 -323)"/>
</g>
</g>
<g id="Mask Group">
<mask id="mask1_alpha" mask-type="alpha">
<g id="d">
<use xlink:href="#path1_fill" transform="translate(-1259 -317)" fill="#FFFFFF"/>
</g>
</mask>
<g id="Rectangle 2" mask="url(#mask1_alpha)">
<use xlink:href="#path3_fill" transform="translate(-1285 -321)" fill="#FFFFFF"/>
</g>
</g>
</g>
</g>
<defs>
<path id="path0_fill" d="M 3.625 57.5C 2.66667 58.0833 1.6875 58.5417 0.6875 58.875C -0.3125 59.1667 -1.125 58.9583 -1.75 58.25C -1.75 57.4583 -1.47917 56.9375 -0.9375 56.6875C -0.395833 56.3958 0.208333 56.1667 0.875 56C 1.58333 55.8333 2.27083 55.625 2.9375 55.375C 3.64583 55.125 4.125 54.625 4.375 53.875C 4.625 53.0417 4.85417 52.0417 5.0625 50.875C 5.27083 49.7083 5.5625 48.5833 5.9375 47.5C 6.3125 46.4167 6.85417 45.5208 7.5625 44.8125C 8.27083 44.0625 9.25 43.6875 10.5 43.6875C 11.2083 43.6875 12.0833 43.9375 13.125 44.4375C 14.2083 44.8958 15.2292 45.4583 16.1875 46.125C 17.1458 46.7917 17.9583 47.5 18.625 48.25C 19.2917 49 19.625 49.6875 19.625 50.3125C 19.625 50.6042 19.5833 50.875 19.5 51.125C 19.4583 51.375 19.25 51.5833 18.875 51.75L 6.5625 56L 6.5 56.3125C 6.5 56.4792 6.47917 56.7083 6.4375 57L 6.4375 57.75C 6.4375 58.0417 6.4375 58.25 6.4375 58.375C 6.4375 59.2083 6.5 60.25 6.625 61.5C 6.75 62.7083 7 63.8958 7.375 65.0625C 7.79167 66.1875 8.35417 67.1667 9.0625 68C 9.77083 68.8333 10.7292 69.25 11.9375 69.25C 12.3958 69.25 12.7708 69.1667 13.0625 69C 13.3958 68.7917 13.7083 68.5833 14 68.375C 14.3333 68.125 14.6458 67.9167 14.9375 67.75C 15.2708 67.5417 15.6458 67.4375 16.0625 67.4375C 16.0625 68.0625 15.9167 68.6667 15.625 69.25C 15.375 69.7917 15.0208 70.2708 14.5625 70.6875C 14.1042 71.1042 13.5833 71.4375 13 71.6875C 12.4167 71.9375 11.8333 72.0625 11.25 72.0625C 9.66667 72.0625 8.39583 71.5208 7.4375 70.4375C 6.47917 69.3125 5.72917 67.9792 5.1875 66.4375C 4.6875 64.8542 4.33333 63.25 4.125 61.625C 3.91667 59.9583 3.75 58.5833 3.625 57.5ZM 11.25 46.4375C 10.5 46.4375 9.85417 46.6458 9.3125 47.0625C 8.8125 47.4792 8.39583 48 8.0625 48.625C 7.72917 49.25 7.47917 49.9375 7.3125 50.6875C 7.1875 51.3958 7.125 52.0417 7.125 52.625C 7.79167 52.625 8.52083 52.5833 9.3125 52.5C 10.1458 52.4167 10.9583 52.25 11.75 52C 12.5417 51.75 13.25 51.4375 13.875 51.0625C 14.5417 50.6458 15 50.1458 15.25 49.5625C 14.625 48.5625 14.0417 47.7917 13.5 47.25C 12.9583 46.7083 12.2083 46.4375 11.25 46.4375ZM 22.0625 65.5C 22.0625 64.2917 22.1875 62.7917 22.4375 61C 22.7292 59.2083 23.125 57.3542 23.625 55.4375C 24.1667 53.4792 24.8333 51.5208 25.625 49.5625C 26.4583 47.6042 27.3958 45.8542 28.4375 44.3125C 29.4792 42.7292 30.6667 41.4583 32 40.5C 33.3333 39.5417 34.7917 39.0625 36.375 39.0625C 36.375 39.6458 36.125 40.2292 35.625 40.8125C 35.1667 41.3542 34.625 41.8958 34 42.4375C 33.4167 42.9375 32.8125 43.4375 32.1875 43.9375C 31.5625 44.3958 31.125 44.8333 30.875 45.25C 29.875 46.5417 28.9792 47.9792 28.1875 49.5625C 27.3958 51.1042 26.7083 52.7083 26.125 54.375C 25.5417 56 25.0833 57.6875 24.75 59.4375C 24.4167 61.1458 24.25 62.8125 24.25 64.4375C 24.25 64.6875 24.2917 65.0833 24.375 65.625C 24.4583 66.125 24.5625 66.6458 24.6875 67.1875C 24.8542 67.7292 25.0625 68.2083 25.3125 68.625C 25.5625 69 25.8333 69.1875 26.125 69.1875L 26.3125 69.1875C 26.3542 69.1875 26.3958 69.1667 26.4375 69.125C 27.5625 67.875 28.5 66.5208 29.25 65.0625C 30 63.6042 30.6458 62.1042 31.1875 60.5625C 31.7292 58.9792 32.1875 57.375 32.5625 55.75C 32.9375 54.125 33.3125 52.5208 33.6875 50.9375C 33.8125 50.4792 33.8542 49.7917 33.8125 48.875C 33.8125 47.9583 33.8542 47.0625 33.9375 46.1875C 34.0625 45.3125 34.2917 44.5625 34.625 43.9375C 34.9583 43.2708 35.5625 42.9375 36.4375 42.9375C 36.6042 42.9375 36.7917 42.9583 37 43C 37.25 43 37.375 43.0208 37.375 43.0625C 38.9167 46.2708 40.2292 49 41.3125 51.25C 42.3958 53.4583 43.3125 55.2917 44.0625 56.75C 44.8125 58.2083 45.4167 59.3542 45.875 60.1875C 46.3333 61.0208 46.6667 61.6667 46.875 62.125C 47.125 62.5417 47.2917 62.8333 47.375 63C 47.4583 63.125 47.5 63.2292 47.5 63.3125C 47.5417 63.4792 47.5833 63.7917 47.625 64.25C 47.6667 64.6667 47.6875 65.125 47.6875 65.625C 47.7292 66.0833 47.75 66.5417 47.75 67C 47.7917 67.4167 47.8125 67.6875 47.8125 67.8125C 47.3958 67.8125 46.9375 67.7917 46.4375 67.75C 45.9375 67.7083 45.5833 67.4375 45.375 66.9375L 37.375 50.3125L 36.6875 49.5625C 36.5625 50.0208 36.3125 50.8333 35.9375 52C 35.6042 53.1667 35.2292 54.4167 34.8125 55.75C 34.4375 57.0417 34.0833 58.2708 33.75 59.4375C 33.4167 60.6042 33.1875 61.4167 33.0625 61.875C 32.8125 62.5 32.4792 63.375 32.0625 64.5C 31.6875 65.625 31.2083 66.75 30.625 67.875C 30.0417 69 29.375 69.9792 28.625 70.8125C 27.875 71.6458 27.0417 72.0625 26.125 72.0625C 25.375 72.0625 24.75 71.8333 24.25 71.375C 23.75 70.875 23.3333 70.2708 23 69.5625C 22.6667 68.8542 22.4167 68.125 22.25 67.375C 22.125 66.625 22.0625 66 22.0625 65.5ZM 47.25 66.6875C 47.25 64.4375 47.6875 62.1667 48.5625 59.875C 49.4792 57.5417 50.6875 55.375 52.1875 53.375C 53.6875 51.375 55.3958 49.6042 57.3125 48.0625C 59.2708 46.4792 61.25 45.2917 63.25 44.5C 63.25 43.25 63.1875 42.0208 63.0625 40.8125C 62.9375 39.6042 62.7917 38.3958 62.625 37.1875C 62.4583 35.9375 62.2917 34.6875 62.125 33.4375C 61.9583 32.1875 61.8542 30.8958 61.8125 29.5625C 61.8125 29.1458 61.9583 28.8542 62.25 28.6875C 62.5833 28.5208 62.9167 28.4375 63.25 28.4375C 63.5 28.4375 63.7917 28.4792 64.125 28.5625C 64.5 28.6042 64.7083 28.8333 64.75 29.25L 69 68.375C 69 68.375 68.9583 68.4583 68.875 68.625C 68.7917 68.75 68.6667 68.8958 68.5 69.0625C 68.3333 69.1875 68.1667 69.3333 68 69.5C 67.8333 69.625 67.7083 69.7292 67.625 69.8125C 67.625 69.8542 67.5625 69.8958 67.4375 69.9375C 67.3542 69.9375 67.2917 69.9375 67.25 69.9375C 66.75 69.6042 66.3542 68.9375 66.0625 67.9375C 65.8125 66.8958 65.6042 65.7708 65.4375 64.5625C 65.3125 63.3125 65.1875 62.1042 65.0625 60.9375C 64.9792 59.7708 64.875 58.875 64.75 58.25C 64.6667 58.5833 64.4792 59.1458 64.1875 59.9375C 63.9375 60.7292 63.5625 61.6458 63.0625 62.6875C 62.5625 63.7292 61.9583 64.7917 61.25 65.875C 60.5417 66.9583 59.7083 67.9583 58.75 68.875C 57.7917 69.7917 56.6875 70.5625 55.4375 71.1875C 54.1875 71.7708 52.8125 72.0625 51.3125 72.0625C 50.5625 72.0625 49.9167 71.9167 49.375 71.625C 48.875 71.3333 48.4583 70.9375 48.125 70.4375C 47.8333 69.8958 47.6042 69.3125 47.4375 68.6875C 47.3125 68.0208 47.25 67.3542 47.25 66.6875ZM 50.125 65.5C 50.125 65.6667 50.1458 65.9583 50.1875 66.375C 50.2292 66.75 50.3125 67.1458 50.4375 67.5625C 50.6042 67.9792 50.7708 68.3542 50.9375 68.6875C 51.1458 68.9792 51.375 69.125 51.625 69.125C 52.5417 69.0417 53.5208 68.6458 54.5625 67.9375C 55.6458 67.1875 56.6875 66.25 57.6875 65.125C 58.6875 64 59.625 62.75 60.5 61.375C 61.4167 59.9583 62.1667 58.5417 62.75 57.125C 63.375 55.7083 63.7917 54.3333 64 53C 64.2083 51.6667 64.1875 50.5208 63.9375 49.5625C 63.7708 49.2292 63.625 49.0208 63.5 48.9375C 63.375 48.8125 63.1875 48.75 62.9375 48.75C 61.1042 48.75 59.3958 49.3125 57.8125 50.4375C 56.2292 51.5625 54.8542 52.9792 53.6875 54.6875C 52.5625 56.3542 51.6875 58.1667 51.0625 60.125C 50.4375 62.0833 50.125 63.875 50.125 65.5ZM 74.0625 70.5625C 74.0208 69.4792 73.9167 67.8125 73.75 65.5625C 73.5833 63.2708 73.3958 60.7083 73.1875 57.875C 73.0208 55 72.8333 52 72.625 48.875C 72.4583 45.7083 72.2708 42.6875 72.0625 39.8125C 71.8958 36.9375 71.7083 34.375 71.5 32.125C 71.3333 29.8333 71.2292 28.1458 71.1875 27.0625L 71.1875 26.25C 71.1875 25.2917 71.6667 24.8125 72.625 24.8125C 72.7083 24.8125 72.8333 24.8333 73 24.875C 73.1667 24.875 73.2917 24.875 73.375 24.875C 73.625 28.5 73.8542 31.9792 74.0625 35.3125C 74.2708 38.6458 74.4792 41.9583 74.6875 45.25C 74.8958 48.5417 75.125 51.8542 75.375 55.1875C 75.625 58.4792 75.9167 61.9167 76.25 65.5C 76.7083 65.9583 76.9583 66.5 77 67.125C 77.0417 67.7083 77.0625 68.3125 77.0625 68.9375C 77.0625 69.2292 77.0417 69.5625 77 69.9375C 77 70.2708 76.9375 70.6042 76.8125 70.9375C 76.6875 71.2292 76.4792 71.5 76.1875 71.75C 75.9375 71.9583 75.6042 72.0625 75.1875 72.0625C 74.8125 72.0625 74.5417 71.9167 74.375 71.625C 74.25 71.3333 74.1458 70.9792 74.0625 70.5625ZM 78.75 43.5625C 79 43.5625 79.2708 43.6458 79.5625 43.8125C 79.8958 43.9792 80.1042 44.2083 80.1875 44.5L 84.5625 66.1875C 85.0625 66.9375 85.4167 67.5417 85.625 68C 85.875 68.4583 86 69.0625 86 69.8125C 86 70.1875 85.9375 70.6667 85.8125 71.25C 85.6875 71.7917 85.3958 72.0625 84.9375 72.0625L 84.6875 72.0625C 84.6042 72.0625 84.5625 72.0417 84.5625 72C 84.4792 71.9583 84.3542 71.875 84.1875 71.75L 83.25 70.8125C 83.125 70.6875 83.0625 70.6042 83.0625 70.5625L 78.75 45.875L 78.75 43.5625ZM 77.6875 29.5625C 78.6042 29.5625 79.2708 29.6875 79.6875 29.9375C 80.1458 30.1458 80.375 30.6875 80.375 31.5625C 80.375 31.8542 80.3542 32.2083 80.3125 32.625C 80.2708 33.0417 80.0208 33.3125 79.5625 33.4375C 78.7292 33.1042 78.2083 32.5625 78 31.8125C 77.7917 31.0625 77.6875 30.3125 77.6875 29.5625ZM 88.8125 48.75C 88.8125 48.5 88.8125 48.2083 88.8125 47.875C 88.8542 47.5417 88.8958 47.2292 88.9375 46.9375C 89.0208 46.6042 89.1667 46.3333 89.375 46.125C 89.5833 45.9167 89.875 45.8125 90.25 45.8125C 90.3333 45.8125 90.4583 45.8333 90.625 45.875C 90.8333 45.875 90.9792 45.875 91.0625 45.875C 91.1042 48.8333 91.25 51.875 91.5 55C 91.7917 58.125 92.3542 61.1458 93.1875 64.0625C 93.2292 63.6042 93.3333 62.8333 93.5 61.75C 93.7083 60.625 93.9167 59.4583 94.125 58.25C 94.375 57 94.6042 55.8333 94.8125 54.75C 95.0625 53.6667 95.2292 52.8958 95.3125 52.4375C 95.6042 51.5625 96 50.6667 96.5 49.75C 97 48.7917 97.6042 47.9167 98.3125 47.125C 99.0625 46.3333 99.875 45.6875 100.75 45.1875C 101.667 44.6875 102.625 44.4375 103.625 44.4375C 105.292 44.4375 106.771 44.8125 108.062 45.5625C 109.354 46.3125 110.5 47.3125 111.5 48.5625C 112.542 49.7708 113.417 51.1667 114.125 52.75C 114.833 54.2917 115.417 55.875 115.875 57.5C 116.333 59.125 116.667 60.6875 116.875 62.1875C 117.083 63.6875 117.188 65.0208 117.188 66.1875L 117.188 66.9375C 117.188 67.1875 117.146 67.4375 117.062 67.6875C 117.021 67.8958 116.917 68.0833 116.75 68.25C 116.625 68.375 116.375 68.4375 116 68.4375C 115.583 68.4375 115.229 68.1875 114.938 67.6875C 114.896 66.6458 114.771 65.4375 114.562 64.0625C 114.396 62.6875 114.146 61.25 113.812 59.75C 113.521 58.2083 113.104 56.7083 112.562 55.25C 112.062 53.75 111.417 52.4167 110.625 51.25C 109.875 50.0833 108.979 49.1458 107.938 48.4375C 106.896 47.6875 105.646 47.3125 104.188 47.3125C 103.021 47.3125 102 47.5208 101.125 47.9375C 100.292 48.3542 99.5833 48.9375 99 49.6875C 98.4167 50.3958 97.9375 51.25 97.5625 52.25C 97.2292 53.2083 96.9792 54.25 96.8125 55.375C 96.6875 55.9583 96.5208 57 96.3125 58.5C 96.1042 60 95.875 61.6042 95.625 63.3125C 95.375 65.0208 95.1458 66.625 94.9375 68.125C 94.7708 69.625 94.6667 70.6667 94.625 71.25C 94.5 71.6667 94.2708 71.9167 93.9375 72C 93.6458 72.0833 93.3333 72.125 93 72.125C 92.9583 72.125 92.8542 72.1042 92.6875 72.0625C 92.5208 72.0625 92.4375 72.0417 92.4375 72L 88.875 50.3125C 88.875 50.2292 88.8542 50 88.8125 49.625C 88.8125 49.25 88.8125 48.9583 88.8125 48.75ZM 122.5 57.5C 121.542 58.0833 120.562 58.5417 119.562 58.875C 118.562 59.1667 117.75 58.9583 117.125 58.25C 117.125 57.4583 117.396 56.9375 117.938 56.6875C 118.479 56.3958 119.083 56.1667 119.75 56C 120.458 55.8333 121.146 55.625 121.812 55.375C 122.521 55.125 123 54.625 123.25 53.875C 123.5 53.0417 123.729 52.0417 123.938 50.875C 124.146 49.7083 124.438 48.5833 124.812 47.5C 125.188 46.4167 125.729 45.5208 126.438 44.8125C 127.146 44.0625 128.125 43.6875 129.375 43.6875C 130.083 43.6875 130.958 43.9375 132 44.4375C 133.083 44.8958 134.104 45.4583 135.062 46.125C 136.021 46.7917 136.833 47.5 137.5 48.25C 138.167 49 138.5 49.6875 138.5 50.3125C 138.5 50.6042 138.458 50.875 138.375 51.125C 138.333 51.375 138.125 51.5833 137.75 51.75L 125.438 56L 125.375 56.3125C 125.375 56.4792 125.354 56.7083 125.312 57L 125.312 57.75C 125.312 58.0417 125.312 58.25 125.312 58.375C 125.312 59.2083 125.375 60.25 125.5 61.5C 125.625 62.7083 125.875 63.8958 126.25 65.0625C 126.667 66.1875 127.229 67.1667 127.938 68C 128.646 68.8333 129.604 69.25 130.812 69.25C 131.271 69.25 131.646 69.1667 131.938 69C 132.271 68.7917 132.583 68.5833 132.875 68.375C 133.208 68.125 133.521 67.9167 133.812 67.75C 134.146 67.5417 134.521 67.4375 134.938 67.4375C 134.938 68.0625 134.792 68.6667 134.5 69.25C 134.25 69.7917 133.896 70.2708 133.438 70.6875C 132.979 71.1042 132.458 71.4375 131.875 71.6875C 131.292 71.9375 130.708 72.0625 130.125 72.0625C 128.542 72.0625 127.271 71.5208 126.312 70.4375C 125.354 69.3125 124.604 67.9792 124.062 66.4375C 123.562 64.8542 123.208 63.25 123 61.625C 122.792 59.9583 122.625 58.5833 122.5 57.5ZM 130.125 46.4375C 129.375 46.4375 128.729 46.6458 128.188 47.0625C 127.688 47.4792 127.271 48 126.938 48.625C 126.604 49.25 126.354 49.9375 126.188 50.6875C 126.062 51.3958 126 52.0417 126 52.625C 126.667 52.625 127.396 52.5833 128.188 52.5C 129.021 52.4167 129.833 52.25 130.625 52C 131.417 51.75 132.125 51.4375 132.75 51.0625C 133.417 50.6458 133.875 50.1458 134.125 49.5625C 133.5 48.5625 132.917 47.7917 132.375 47.25C 131.833 46.7083 131.083 46.4375 130.125 46.4375Z"/>
<path id="path1_fill" d="M 111.96 74.88C 112.92 75.12 113.64 75.72 114.12 76.68C 114.6 77.52 114.72 78.42 114.48 79.38C 114.48 79.38 114.06 80.58 113.22 82.98C 112.38 85.38 111.24 88.56 109.8 92.52C 108.36 96.36 106.62 100.74 104.58 105.66C 102.66 110.58 100.5 115.62 98.1 120.78C 92.1 133.14 86.34 142.8 80.82 149.76C 73.26 159.36 65.76 164.16 58.32 164.16L 58.14 164.16C 53.94 164.16 50.46 162.6 47.7 159.48C 44.94 156.24 43.08 151.32 42.12 144.72C 41.28 138.24 41.22 129.72 41.94 119.16C 38.94 123.24 35.52 126.9 31.68 130.14C 30.24 131.22 28.56 132.36 26.64 133.56C 24.84 134.76 22.92 135.78 20.88 136.62C 18.84 137.58 16.74 138.18 14.58 138.42C 12.42 138.78 10.38 138.66 8.46 138.06C 6.06 137.58 3.9 136.56 1.98 135C 0.18 133.56 -1.38 131.64 -2.7 129.24C -5.34 124.44 -6.66 117.9 -6.66 109.62C -6.66 103.5 -5.88 97.32 -4.32 91.08C -2.88 84.84 -0.78 79.14 1.98 73.98C 3.3 71.46 4.74 69.18 6.3 67.14C 7.98 65.1 9.66 63.24 11.34 61.56C 15.3 57.96 19.26 55.98 23.22 55.62C 25.38 55.38 27.9 55.68 30.78 56.52C 33.78 57.36 36.84 59.7 39.96 63.54C 42.84 67.02 45.36 71.52 47.52 77.04C 48.48 71.16 49.56 64.92 50.76 58.32C 51.96 51.72 53.16 45.12 54.36 38.52C 55.68 31.92 56.88 25.5 57.96 19.26C 59.16 12.9 60.24 7.02 61.2 1.62C 61.32 0.9 61.98 0.24 63.18 -0.36C 64.38 -1.08 65.82 -1.68 67.5 -2.16C 69.18 -2.64 70.92 -2.94 72.72 -3.06C 74.64 -3.18 76.38 -3.06 77.94 -2.7C 79.5 -2.46 80.76 -1.92 81.72 -1.08C 82.68 -0.24 83.04 0.96 82.8 2.52C 81.48 10.8 79.92 19.5 78.12 28.62C 76.32 37.74 74.52 46.98 72.72 56.34C 70.92 65.7 69.18 75 67.5 84.24C 65.94 93.36 64.74 102.12 63.9 110.52C 62.58 124.2 62.28 134.34 63 140.94C 63.72 147.54 65.28 150.96 67.68 151.2C 70.2 151.44 73.44 148.68 77.4 142.92C 81.36 137.16 86.04 128.76 91.44 117.72C 93.84 112.68 96 107.76 97.92 102.96C 99.96 98.16 101.64 93.9 102.96 90.18C 104.4 86.34 105.48 83.22 106.2 80.82C 107.04 78.42 107.46 77.22 107.46 77.22C 107.82 76.26 108.42 75.6 109.26 75.24C 110.1 74.76 111 74.64 111.96 74.88ZM 14.94 109.62C 14.94 115.5 15.42 119.76 16.38 122.4C 17.46 125.04 18.84 126.54 20.52 126.9C 22.2 127.26 24.06 126.66 26.1 125.1C 28.26 123.54 30.42 121.5 32.58 118.98C 34.74 116.46 36.78 113.7 38.7 110.7C 40.62 107.7 42.3 104.88 43.74 102.24L 45 93.06L 45 92.88C 44.52 91.2 43.86 88.92 43.02 86.04C 42.3 83.04 41.28 80.1 39.96 77.22C 38.28 73.5 36.6 71.04 34.92 69.84C 33.24 68.64 31.56 68.4 29.88 69.12C 28.32 69.84 26.7 71.34 25.02 73.62C 23.46 75.9 21.96 78.72 20.52 82.08C 16.8 90.48 14.94 99.66 14.94 109.62Z"/>
<path id="path2_fill" d="M 0 0L 217 0L 217 184L 0 184L 0 0Z"/>
<path id="path3_fill" d="M 0 0L 109 0L 109 169L 0 169L 0 0Z"/>
</defs>
</svg>
