<svg width="217" height="177" viewBox="0 0 217 177" version="1.1" xmlns="http://www.w3.org/2000/svg" xmlns:xlink="http://www.w3.org/1999/xlink">
<title>shorthand-logo</title>
<desc>Created using Figma</desc>
<g id="Canvas" transform="translate(1589 507)">
<g id="shorthand-logo">
<g id="Rectangle 3">
<use xlink:href="#path0_fill" transform="translate(-1589 -456)" fill="#5F9EA0"/>
</g>
<g id="D">
<g id="Mask Group">
<mask id="mask0_alpha" mask-type="alpha">
<g id="deadline">
<g id="d">
<use xlink:href="#path1_fill" transform="translate(-1539.73 -495)"/>
</g>
<g id="d">
<use xlink:href="#path1_fill" transform="translate(-1539.73 -496)" fill="#FFFFFF"/>
</g>
<g id="d">
<use xlink:href="#path1_fill" transform="translate(-1535.5 -502)"/>
</g>
</g>
</mask>
<g id="Rectangle" mask="url(#mask0_alpha)">
<use xlink:href="#path2_fill" transform="translate(-1712.89 -509)"/>
</g>
</g>
<g id="Mask Group">
<mask id="mask1_alpha" mask-type="alpha">
<g id="d">
<use xlink:href="#path1_fill" transform="translate(-1528.46 -503)" fill="#FFFFFF"/>
</g>
</mask>
<g id="Rectangle 2" mask="url(#mask1_alpha)">
<use xlink:href="#path3_fill" transform="translate(-1565.07 -507)" fill="#FFFFFF"/>
</g>
</g>
</g>
</g>
</g>
<defs>
<path id="path0_fill" d="M 0 0L 216.804 0L 216.804 102L 0 102L 0 0Z"/>
<path id="path1_fill" d="M 111.96 74.88C 112.92 75.12 113.64 75.72 114.12 76.68C 114.6 77.52 114.72 78.42 114.48 79.38C 114.48 79.38 114.06 80.58 113.22 82.98C 112.38 85.38 111.24 88.56 109.8 92.52C 108.36 96.36 106.62 100.74 104.58 105.66C 102.66 110.58 100.5 115.62 98.1 120.78C 92.1 133.14 86.34 142.8 80.82 149.76C 73.26 159.36 65.76 164.16 58.32 164.16L 58.14 164.16C 53.94 164.16 50.46 162.6 47.7 159.48C 44.94 156.24 43.08 151.32 42.12 144.72C 41.28 138.24 41.22 129.72 41.94 119.16C 38.94 123.24 35.52 126.9 31.68 130.14C 30.24 131.22 28.56 132.36 26.64 133.56C 24.84 134.76 22.92 135.78 20.88 136.62C 18.84 137.58 16.74 138.18 14.58 138.42C 12.42 138.78 10.38 138.66 8.46 138.06C 6.06 137.58 3.9 136.56 1.98 135C 0.18 133.56 -1.38 131.64 -2.7 129.24C -5.34 124.44 -6.66 117.9 -6.66 109.62C -6.66 103.5 -5.88 97.32 -4.32 91.08C -2.88 84.84 -0.78 79.14 1.98 73.98C 3.3 71.46 4.74 69.18 6.3 67.14C 7.98 65.1 9.66 63.24 11.34 61.56C 15.3 57.96 19.26 55.98 23.22 55.62C 25.38 55.38 27.9 55.68 30.78 56.52C 33.78 57.36 36.84 59.7 39.96 63.54C 42.84 67.02 45.36 71.52 47.52 77.04C 48.48 71.16 49.56 64.92 50.76 58.32C 51.96 51.72 53.16 45.12 54.36 38.52C 55.68 31.92 56.88 25.5 57.96 19.26C 59.16 12.9 60.24 7.02 61.2 1.62C 61.32 0.9 61.98 0.24 63.18 -0.36C 64.38 -1.08 65.82 -1.68 67.5 -2.16C 69.18 -2.64 70.92 -2.94 72.72 -3.06C 74.64 -3.18 76.38 -3.06 77.94 -2.7C 79.5 -2.46 80.76 -1.92 81.72 -1.08C 82.68 -0.24 83.04 0.96 82.8 2.52C 81.48 10.8 79.92 19.5 78.12 28.62C 76.32 37.74 74.52 46.98 72.72 56.34C 70.92 65.7 69.18 75 67.5 84.24C 65.94 93.36 64.74 102.12 63.9 110.52C 62.58 124.2 62.28 134.34 63 140.94C 63.72 147.54 65.28 150.96 67.68 151.2C 70.2 151.44 73.44 148.68 77.4 142.92C 81.36 137.16 86.04 128.76 91.44 117.72C 93.84 112.68 96 107.76 97.92 102.96C 99.96 98.16 101.64 93.9 102.96 90.18C 104.4 86.34 105.48 83.22 106.2 80.82C 107.04 78.42 107.46 77.22 107.46 77.22C 107.82 76.26 108.42 75.6 109.26 75.24C 110.1 74.76 111 74.64 111.96 74.88ZM 14.94 109.62C 14.94 115.5 15.42 119.76 16.38 122.4C 17.46 125.04 18.84 126.54 20.52 126.9C 22.2 127.26 24.06 126.66 26.1 125.1C 28.26 123.54 30.42 121.5 32.58 118.98C 34.74 116.46 36.78 113.7 38.7 110.7C 40.62 107.7 42.3 104.88 43.74 102.24L 45 93.06L 45 92.88C 44.52 91.2 43.86 88.92 43.02 86.04C 42.3 83.04 41.28 80.1 39.96 77.22C 38.28 73.5 36.6 71.04 34.92 69.84C 33.24 68.64 31.56 68.4 29.88 69.12C 28.32 69.84 26.7 71.34 25.02 73.62C 23.46 75.9 21.96 78.72 20.52 82.08C 16.8 90.48 14.94 99.66 14.94 109.62Z"/>
<path id="path2_fill" d="M 0 0L 305.497 0L 305.497 184L 0 184L 0 0Z"/>
<path id="path3_fill" d="M 0 0L 153.453 0L 153.453 169L 0 169L 0 0Z"/>
</defs>
</svg>
