<svg width="50" height="138" viewBox="0 0 50 138" version="1.1" xmlns="http://www.w3.org/2000/svg" xmlns:xlink="http://www.w3.org/1999/xlink" xmlns:figma="http://www.figma.com/figma/ns">
<title>1-purple</title>
<desc>Created using Figma</desc>
<g id="Canvas" transform="translate(442 86)" figma:type="canvas">
<g id="1-purple" figma:type="frame">
<g id="1" figma:type="text">
<use xlink:href="#path0_fill" transform="translate(-438 -84)" fill="#333333"/>
</g>
<g id="1" figma:type="text">
<use xlink:href="#path1_fill" transform="translate(-442 -83)" fill="#BFA8D4"/>
</g>
</g>
</g>
<defs>
<path id="path0_fill" d="M 43.076 -1.102C 44.0253 -0.983332 44.7373 -0.567997 45.212 0.144005C 45.8053 0.855995 46.0427 1.68667 45.924 2.636L 32.574 131.33C 32.4553 132.517 31.2093 133.525 28.836 134.356C 26.5813 135.187 24.0893 135.602 21.36 135.602C 18.6307 135.721 16.198 135.365 14.062 134.534C 11.926 133.822 10.9767 132.517 11.214 130.618L 20.114 54.256C 15.0113 59.0027 9.79 61.376 4.45 61.376C 3.50067 61.376 2.67 61.02 1.958 60.308C 1.246 59.596 0.89 58.7653 0.89 57.816C 0.89 56.748 1.246 55.9173 1.958 55.324C 2.67 54.612 3.50067 54.256 4.45 54.256C 8.60333 54.256 12.994 51.764 17.622 46.78C 19.5207 44.5253 21.4193 41.9147 23.318 38.948C 25.2167 35.8627 27.1153 32.362 29.014 28.446C 30.5567 25.1233 31.9213 21.86 33.108 18.656C 34.4133 15.452 35.4813 12.604 36.312 10.112C 37.1427 7.50134 37.7953 5.42467 38.27 3.882C 38.7447 2.22067 38.982 1.39 38.982 1.39C 39.2193 0.440671 39.694 -0.27133 40.406 -0.746005C 41.2367 -1.22067 42.1267 -1.33934 43.076 -1.102Z"/>
<path id="path1_fill" d="M 41.866 -1.307C 42.7887 -1.19167 43.4807 -0.787997 43.942 -0.0959955C 44.5187 0.595996 44.7493 1.40333 44.634 2.326L 31.659 127.405C 31.5437 128.558 30.3327 129.539 28.026 130.346C 25.8347 131.153 23.4127 131.557 20.76 131.557C 18.1073 131.672 15.743 131.326 13.667 130.519C 11.591 129.827 10.6683 128.558 10.899 126.713L 19.549 52.496C 14.5897 57.1093 9.515 59.416 4.325 59.416C 3.40233 59.416 2.595 59.07 1.903 58.378C 1.211 57.686 0.865 56.8787 0.865 55.956C 0.865 54.918 1.211 54.1107 1.903 53.534C 2.595 52.842 3.40233 52.496 4.325 52.496C 8.36167 52.496 12.629 50.074 17.127 45.23C 18.9723 43.0387 20.8177 40.5013 22.663 37.618C 24.5083 34.6193 26.3537 31.217 28.199 27.411C 29.6983 24.1817 31.0247 21.01 32.178 17.896C 33.4467 14.782 34.4847 12.014 35.292 9.592C 36.0993 7.05467 36.7337 5.03634 37.195 3.537C 37.6563 1.92234 37.887 1.115 37.887 1.115C 38.1177 0.192338 38.579 -0.499664 39.271 -0.961005C 40.0783 -1.42234 40.9433 -1.53767 41.866 -1.307Z"/>
</defs>
</svg>
