<svg width="123" height="165" viewBox="0 0 123 165" version="1.1" xmlns="http://www.w3.org/2000/svg" xmlns:xlink="http://www.w3.org/1999/xlink" xmlns:figma="http://www.figma.com/figma/ns">
<title>7-red</title>
<desc>Created using Figma</desc>
<g id="Canvas" transform="translate(-564 -98)" figma:type="canvas">
<g id="7-red" figma:type="frame">
<g id="Union" figma:type="vector-operation">
<use xlink:href="#path0_fill" transform="translate(567.692 100.592)"/>
</g>
<g id="7" figma:type="text">
<use xlink:href="#path1_fill" transform="translate(560 99)" fill="#BB3C3C"/>
</g>
</g>
</g>
<defs>
<path id="path0_fill" fill-rule="evenodd" d="M 109.956 2.244C 110.323 2.88572 110.504 3.52745 110.5 4.16917C 111.907 4.05806 113.059 4.74966 113.956 6.244C 113.957 6.24559 113.958 6.24718 113.959 6.24877C 115.615 5.89731 116.947 6.56239 117.956 8.244C 118.5 9.196 118.636 10.148 118.364 11.1C 118.228 12.052 117.752 12.868 116.936 13.548L 114.284 15.792C 112.516 17.288 110.204 19.532 107.348 22.524C 104.492 25.38 101.228 29.052 97.556 33.54C 93.884 37.892 90.076 42.992 86.132 48.84C 83.412 52.784 80.692 57.068 77.972 61.692C 76.3059 64.5245 74.6397 67.561 72.9735 70.8018C 75.8995 71.0889 78.299 71.9683 80.172 73.44C 81.1305 74.2615 81.8821 75.2209 82.427 76.3181C 83.0302 76.6318 83.593 76.991 84.1153 77.3957C 85.667 77.8528 87.0192 78.5342 88.172 79.44C 90.076 81.072 91.164 83.248 91.436 85.968C 91.436 87.056 91.028 88.008 90.212 88.824C 89.396 89.64 88.444 90.048 87.356 90.048C 86.268 90.184 85.316 89.844 84.5 89.028C 84.1874 88.7154 83.9347 88.3829 83.7418 88.0304C 83.6152 88.0421 83.4866 88.048 83.356 88.048C 82.268 88.184 81.316 87.844 80.5 87.028C 79.8859 86.4139 79.5028 85.7227 79.3509 84.9545C 79.1698 84.9502 78.9821 84.948 78.788 84.948C 77.836 84.812 76.408 84.812 74.504 84.948C 73.144 85.084 71.716 85.22 70.22 85.356C 68.724 85.492 67.228 85.696 65.732 85.968C 61.38 95.624 57.504 106.3 54.104 117.996C 50.84 129.692 48.256 142.68 46.352 156.96C 46.08 158.456 44.584 159.612 41.864 160.428C 39.28 161.244 36.424 161.652 33.296 161.652C 30.304 161.788 27.584 161.38 25.136 160.428C 24.1324 160.038 23.3574 159.556 22.8109 158.983C 22.2392 158.825 21.6808 158.64 21.136 158.428C 18.9951 157.595 17.8944 156.347 17.8339 154.682C 17.5988 154.602 17.3662 154.518 17.136 154.428C 14.688 153.476 13.6 151.98 13.872 149.94C 15.368 138.38 17.476 127.16 20.196 116.28C 22.4968 107.515 25.1947 98.9268 28.2898 90.515C 26.3884 90.1577 24.8612 89.526 23.708 88.62C 23.5704 88.5168 23.4386 88.4097 23.3126 88.2988C 21.858 87.9248 20.6565 87.3652 19.708 86.62C 18.7006 85.8644 18.0041 84.9016 17.6186 83.7314C 16.8962 83.4236 16.2594 83.0532 15.708 82.62C 14.076 81.396 13.26 79.628 13.26 77.316C 13.124 76.228 13.464 75.276 14.28 74.46C 15.096 73.644 16.048 73.168 17.136 73.032C 18.224 73.032 19.108 73.372 19.788 74.052C 20.604 74.596 21.08 75.412 21.216 76.5C 21.624 76.636 22.372 76.772 23.46 76.908C 24.684 76.908 26.452 76.772 28.764 76.5L 34.272 75.888C 36.04 72.08 37.808 68.34 39.576 64.668C 41.48 60.996 43.52 57.392 45.696 53.856C 50.728 45.152 55.692 37.604 60.588 31.212C 64.0562 26.7128 67.3628 22.6657 70.508 19.0709C 70.48 19.066 70.452 19.061 70.424 19.056C 66.616 18.24 63.012 17.492 59.612 16.812C 56.62 16.132 53.832 15.52 51.248 14.976C 48.8 14.432 46.42 14.16 44.108 14.16C 40.572 14.16 37.172 14.704 33.908 15.792C 30.78 16.88 27.924 18.376 25.34 20.28C 22.892 22.184 20.852 24.496 19.22 27.216C 17.724 29.8 16.772 32.588 16.364 35.58C 15.8787 38.7825 16.2592 41.6387 17.5052 44.1488C 18.0472 44.2282 18.6042 44.268 19.176 44.268C 20.264 44.268 21.216 44.676 22.032 45.492C 22.8281 46.2881 23.2359 47.2137 23.2553 48.2687C 24.3103 48.2881 25.2359 48.6959 26.032 49.492C 26.2749 49.7349 26.4815 49.9897 26.6521 50.2567C 26.8253 50.2642 27 50.268 27.176 50.268C 28.264 50.268 29.216 50.676 30.032 51.492C 30.848 52.308 31.256 53.26 31.256 54.348C 31.256 55.436 30.848 56.388 30.032 57.204C 29.216 58.02 28.264 58.428 27.176 58.428C 23.0855 58.428 19.5937 57.4299 16.7009 55.4336C 13.7992 54.452 11.3335 52.7434 9.30398 50.308C 8.99624 49.9592 8.70083 49.6011 8.41781 49.2337C 7.28555 48.4156 6.24764 47.4404 5.30398 46.308C 3.264 43.996 1.76803 41.276 0.816004 38.148C 2.48638e-05 35.02 -0.204016 31.824 0.204004 28.56C 1.29202 20.128 5.44003 13.192 12.648 7.752C 15.912 5.30399 19.516 3.4 23.46 2.04C 27.54 0.68 31.756 0 36.108 0C 38.828 0 41.616 0.340004 44.472 1.02C 47.328 1.564 50.32 2.176 53.448 2.856C 56.848 3.67199 60.452 4.48799 64.26 5.30399C 68.068 5.98399 72.012 6.392 76.092 6.52799C 80.308 6.52799 84.796 6.12 89.556 5.30399C 94.316 4.48799 99.416 2.924 104.856 0.611992C 107.032 -0.339996 108.732 0.204002 109.956 2.244Z"/>
<path id="path1_fill" d="M 114.648 1.836C 115.192 2.788 115.328 3.74 115.056 4.692C 114.92 5.644 114.444 6.46001 113.628 7.14001C 113.628 7.14001 112.744 7.888 110.976 9.384C 109.208 10.88 106.896 13.124 104.04 16.116C 101.184 18.972 97.92 22.644 94.248 27.132C 90.576 31.484 86.768 36.584 82.824 42.432C 80.104 46.376 77.384 50.66 74.664 55.284C 71.944 59.908 69.224 65.076 66.504 70.788C 70.856 70.244 74.528 70.108 77.52 70.38C 80.512 70.652 82.96 71.536 84.864 73.032C 86.768 74.664 87.856 76.84 88.128 79.56C 88.128 80.648 87.72 81.6 86.904 82.416C 86.088 83.232 85.136 83.64 84.048 83.64C 82.96 83.776 82.008 83.436 81.192 82.62C 80.376 81.804 79.968 80.852 79.968 79.764C 79.968 79.628 79.9 79.492 79.764 79.356C 79.356 79.084 78.812 78.88 78.132 78.744C 77.452 78.608 76.568 78.54 75.48 78.54C 74.528 78.404 73.1 78.404 71.196 78.54C 69.836 78.676 68.408 78.812 66.912 78.948C 65.416 79.084 63.92 79.288 62.424 79.56C 58.072 89.216 54.196 99.892 50.796 111.588C 47.532 123.284 44.948 136.272 43.044 150.552C 42.772 152.048 41.276 153.204 38.556 154.02C 35.972 154.836 33.116 155.244 29.988 155.244C 26.996 155.38 24.276 154.972 21.828 154.02C 19.38 153.068 18.292 151.572 18.564 149.532C 20.06 137.972 22.168 126.752 24.888 115.872C 27.744 104.992 31.212 94.384 35.292 84.048C 34.204 84.32 33.116 84.456 32.028 84.456C 31.076 84.456 30.124 84.456 29.172 84.456C 25.228 84.456 22.304 83.708 20.4 82.212C 18.768 80.988 17.952 79.22 17.952 76.908C 17.816 75.82 18.156 74.868 18.972 74.052C 19.788 73.236 20.74 72.76 21.828 72.624C 22.916 72.624 23.8 72.964 24.48 73.644C 25.296 74.188 25.772 75.004 25.908 76.092C 26.316 76.228 27.064 76.364 28.152 76.5C 29.376 76.5 31.144 76.364 33.456 76.092L 38.964 75.48C 40.732 71.672 42.5 67.932 44.268 64.26C 46.172 60.588 48.212 56.984 50.388 53.448C 55.42 44.744 60.384 37.196 65.28 30.804C 70.312 24.276 75.004 18.7 79.356 14.076C 75.004 13.804 70.924 13.328 67.116 12.648C 63.308 11.832 59.704 11.084 56.304 10.404C 53.312 9.724 50.524 9.112 47.94 8.568C 45.492 8.024 43.112 7.752 40.8 7.752C 37.264 7.752 33.864 8.29599 30.6 9.384C 27.472 10.472 24.616 11.968 22.032 13.872C 19.584 15.776 17.544 18.088 15.912 20.808C 14.416 23.392 13.464 26.18 13.056 29.172C 12.376 33.66 13.396 37.468 16.116 40.596C 18.292 42.772 20.876 43.86 23.868 43.86C 24.956 43.86 25.908 44.268 26.724 45.084C 27.54 45.9 27.948 46.852 27.948 47.94C 27.948 49.028 27.54 49.98 26.724 50.796C 25.908 51.612 24.956 52.02 23.868 52.02C 18.02 52.02 13.396 49.98 9.996 45.9C 7.956 43.588 6.46 40.868 5.508 37.74C 4.692 34.612 4.488 31.416 4.896 28.152C 5.984 19.72 10.132 12.784 17.34 7.344C 20.604 4.896 24.208 2.992 28.152 1.632C 32.232 0.272005 36.448 -0.407995 40.8 -0.407995C 43.52 -0.407995 46.308 -0.0679951 49.164 0.612004C 52.02 1.156 55.012 1.76801 58.14 2.448C 61.54 3.26399 65.144 4.08 68.952 4.896C 72.76 5.576 76.704 5.984 80.784 6.11999C 85 6.11999 89.488 5.712 94.248 4.896C 99.008 4.08 104.108 2.516 109.548 0.203997C 111.724 -0.747994 113.424 -0.203997 114.648 1.836Z"/>
</defs>
</svg>
