<svg width="116" height="138" viewBox="0 0 116 138" version="1.1" xmlns="http://www.w3.org/2000/svg" xmlns:xlink="http://www.w3.org/1999/xlink" xmlns:figma="http://www.figma.com/figma/ns">
<title>2-red</title>
<desc>Created using Figma</desc>
<g id="Canvas" transform="translate(273 -486)" figma:type="canvas">
<g id="2-red" figma:type="frame">
<g id="Union" figma:type="vector-operation">
<use xlink:href="#path0_fill" transform="translate(-272.583 487.575)" fill="#333333"/>
</g>
<g id="2" figma:type="text">
<use xlink:href="#path1_fill" transform="translate(-273 487)" fill="#BB3C3C"/>
</g>
</g>
</g>
<defs>
<path id="path0_fill" fill-rule="evenodd" d="M 109.978 114.163C 110.555 114.855 110.843 115.72 110.843 116.758C 110.843 116.905 110.834 117.049 110.816 117.191C 111.054 117.147 111.301 117.125 111.556 117.125C 112.479 117.125 113.286 117.471 113.978 118.163C 114.555 118.855 114.843 119.72 114.843 120.758C 114.843 121.68 114.497 122.488 113.805 123.18C 104.924 131.253 96.8509 135.29 89.5849 135.29C 88.8929 135.29 88.1433 135.232 87.3359 135.117C 86.6439 135.117 85.9519 135.059 85.2599 134.944C 85.1992 134.931 85.1386 134.919 85.078 134.906C 83.6944 135.172 82.3373 135.305 81.0069 135.305C 80.3029 135.305 79.5403 135.246 78.7189 135.129C 78.0149 135.129 77.3109 135.07 76.6069 134.953C 72.6176 134.131 68.9803 132.489 65.6949 130.025C 62.6647 127.668 59.5809 125.043 56.4433 122.149C 56.361 122.204 56.2785 122.26 56.1959 122.315C 54.5813 123.468 52.8513 124.679 51.0059 125.948C 43.2786 131.138 36.2433 134.252 29.8999 135.29C 29.0926 135.405 28.3429 135.463 27.6509 135.463C 26.9589 135.578 26.2669 135.636 25.5749 135.636C 23.9307 135.636 22.4459 135.476 21.1205 135.157C 20.8414 135.21 20.5635 135.259 20.2869 135.305C 19.4656 135.422 18.7029 135.481 17.9989 135.481C 17.2949 135.598 16.5909 135.657 15.8869 135.657C 13.4229 135.657 11.3109 135.305 9.55092 134.601C 7.90828 134.014 6.55895 133.369 5.50295 132.665C 2.92159 130.67 1.27895 128.147 0.57494 125.097C -0.24641 122.398 -0.187725 119.406 0.750935 116.121C 1.3376 113.891 2.33495 111.838 3.74294 109.961C 5.15093 108.083 6.85228 106.441 8.84694 105.033C 10.3814 103.931 12.0081 102.994 13.7273 102.223C 14.0289 101.987 14.3382 101.757 14.6549 101.534C 19.1529 98.3044 24.4583 96.5167 30.5709 96.1707C 34.2616 95.94 37.6639 96.2284 40.7779 97.0357C 43.4884 97.7384 46.0242 98.7033 48.3851 99.9303C 50.7169 97.5816 53.0255 95.117 55.3109 92.5367C 58.9483 88.3127 62.2336 83.7954 65.1669 78.9847C 68.1003 74.174 70.5056 69.07 72.3829 63.6727C 74.3776 58.158 75.6683 52.4087 76.2549 46.4247C 77.0763 35.3954 74.9643 26.4194 69.9189 19.4967C 67.6556 16.522 65.2497 14.2958 62.7013 12.818C 58.7056 13.2398 54.7495 15.6 50.8329 19.8987C 47.4883 23.474 45.2393 27.6837 44.0859 32.5277C 42.9326 37.3717 43.1633 41.639 44.7779 45.3297C 45.0049 45.8671 45.2609 46.3768 45.5459 46.8586C 48.0728 48.3627 51.3851 49.1147 55.4829 49.1147C 56.4056 49.1147 57.2129 49.4607 57.9049 50.1527C 58.5969 50.8447 58.9429 51.652 58.9429 52.5747C 58.9429 52.7575 58.9293 52.9358 58.9022 53.1096C 59.094 53.113 59.2876 53.1147 59.4829 53.1147C 60.4056 53.1147 61.2129 53.4607 61.9049 54.1527C 62.5969 54.8447 62.9429 55.652 62.9429 56.5747C 62.9429 57.4974 62.5969 58.3047 61.9049 58.9967C 61.2129 59.6887 60.4056 60.0347 59.4829 60.0347C 56.0325 60.0347 52.956 59.6046 50.2535 58.7445C 39.6477 58.7119 32.5335 54.6639 28.9109 46.6007C 27.8549 44.1367 27.2096 41.438 26.9749 38.5047C 26.8576 35.5714 27.1509 32.638 27.8549 29.7047C 28.5589 26.654 29.6149 23.7207 31.0229 20.9047C 32.5483 18.0887 34.3669 15.5074 36.4789 13.1607C 39.0603 10.3447 41.9349 8.0567 45.1029 6.2967C 47.673 4.8689 50.3588 3.78859 53.1606 3.05577C 55.4074 2.06681 57.7385 1.33078 60.1539 0.847697C 63.6139 0.0403696 67.1316 -0.190298 70.7069 0.155695C 74.2823 0.501704 77.7423 1.42436 81.0869 2.9237C 85.8702 5.11932 89.8538 8.11463 93.0377 11.9097C 96.2745 14.6253 98.9296 17.9226 101.003 21.8017C 105.04 29.2984 106.597 38.179 105.674 48.4437C 104.29 63.6677 98.2926 78.315 87.6819 92.3857C 81.7468 100.033 74.8516 107.228 66.9962 113.972C 69.4117 116.162 71.7443 118.186 73.9939 120.045C 76.7619 122.236 79.6453 123.62 82.6439 124.197C 83.6819 124.427 84.8929 124.543 86.2769 124.543C 87.6609 124.427 89.2756 124.081 91.1209 123.505C 92.9663 122.813 95.0423 121.717 97.3489 120.218C 99.6556 118.718 102.251 116.642 105.134 113.99C 105.826 113.413 106.633 113.125 107.556 113.125C 108.479 113.125 109.286 113.471 109.978 114.163ZM 33.0345 107.259C 28.5387 107.782 25.0719 109.109 22.6339 111.243C 19.8659 113.549 18.0783 115.914 17.2709 118.336C 16.952 119.475 16.777 120.47 16.7461 121.321C 17.1742 121.334 17.6305 121.313 18.1149 121.256C 20.1909 120.91 22.5553 120.102 25.2079 118.834C 27.5618 117.606 29.8703 116.287 32.1333 114.877C 32.9148 114.294 33.6593 113.711 34.3669 113.129C 36.3616 111.486 37.7109 110.137 38.4149 109.081C 36.6917 108.277 34.8983 107.669 33.0345 107.259Z"/>
<path id="path1_fill" d="M 104.55 112.02C 105.117 112.7 105.4 113.55 105.4 114.57C 105.4 115.477 105.06 116.27 104.38 116.95C 95.6533 124.883 87.72 128.85 80.58 128.85C 79.9 128.85 79.1633 128.793 78.37 128.68C 77.69 128.68 77.01 128.623 76.33 128.51C 72.4767 127.717 68.9633 126.13 65.79 123.75C 62.73 121.37 59.6133 118.707 56.44 115.76C 55.3067 114.627 54.06 113.55 52.7 112.53C 51.1133 113.777 49.47 114.967 47.77 116.1C 46.1833 117.233 44.4833 118.423 42.67 119.67C 35.0767 124.77 28.1633 127.83 21.93 128.85C 21.1367 128.963 20.4 129.02 19.72 129.02C 19.04 129.133 18.36 129.19 17.68 129.19C 15.3 129.19 13.26 128.85 11.56 128.17C 9.97333 127.603 8.67 126.98 7.65 126.3C 5.15667 124.373 3.57 121.937 2.89 118.99C 2.09667 116.383 2.15333 113.493 3.06 110.32C 3.62667 108.167 4.59 106.183 5.95 104.37C 7.31 102.557 8.95333 100.97 10.88 99.61C 15.3 96.4367 20.5133 94.68 26.52 94.34C 30.1467 94.1133 33.49 94.3967 36.55 95.19C 39.61 95.9833 42.4433 97.1167 45.05 98.59C 48.6767 95.19 52.2467 91.5067 55.76 87.54C 59.2733 83.46 62.4467 79.0967 65.28 74.45C 68.1133 69.8033 70.4367 64.8733 72.25 59.66C 74.1767 54.3333 75.4233 48.78 75.99 43C 76.7833 32.3467 74.7433 23.6767 69.87 16.99C 65.9033 11.7767 61.4833 8.94333 56.61 8.49C 51.85 8.03667 47.1467 10.36 42.5 15.46C 39.2133 18.9733 37.0033 23.11 35.87 27.87C 34.7367 32.63 34.9633 36.8233 36.55 40.45C 38.7033 45.55 43.52 48.1 51 48.1C 51.9067 48.1 52.7 48.44 53.38 49.12C 54.06 49.8 54.4 50.5933 54.4 51.5C 54.4 52.4067 54.06 53.2 53.38 53.88C 52.7 54.56 51.9067 54.9 51 54.9C 40.6867 54.9 33.7733 50.99 30.26 43.17C 29.24 40.79 28.6167 38.1833 28.39 35.35C 28.2767 32.5167 28.56 29.6833 29.24 26.85C 29.92 23.9033 30.94 21.07 32.3 18.35C 33.7733 15.63 35.53 13.1367 37.57 10.87C 40.0633 8.15 42.84 5.94 45.9 4.24C 48.96 2.54 52.19 1.35 55.59 0.67C 58.99 -0.123333 62.4467 -0.35 65.96 -0.01C 69.4733 0.33 72.8733 1.23667 76.16 2.71C 83.0733 5.88333 88.2867 10.7567 91.8 17.33C 95.7667 24.6967 97.2967 33.4233 96.39 43.51C 95.03 58.47 89.1367 72.8633 78.71 86.69C 72.8167 94.2833 65.96 101.423 58.14 108.11L 61.03 110.66C 63.8633 113.267 66.5833 115.647 69.19 117.8C 71.91 119.953 74.7433 121.313 77.69 121.88C 78.71 122.107 79.9 122.22 81.26 122.22C 82.62 122.107 84.2067 121.767 86.02 121.2C 87.8333 120.52 89.8733 119.443 92.14 117.97C 94.4067 116.497 96.9567 114.457 99.79 111.85C 100.47 111.283 101.263 111 102.17 111C 103.077 111 103.87 111.34 104.55 112.02ZM 9.52 112.19C 8.72667 115.023 8.84 116.95 9.86 117.97C 10.88 118.877 12.3533 119.217 14.28 118.99C 16.32 118.65 18.6433 117.857 21.25 116.61C 23.8567 115.25 26.4067 113.777 28.9 112.19C 31.3933 110.603 33.6033 109.017 35.53 107.43C 37.4567 105.843 38.76 104.54 39.44 103.52C 36.04 101.933 32.3567 101.14 28.39 101.14L 26.86 101.14C 21.5333 101.48 17.51 102.84 14.79 105.22C 12.07 107.487 10.3133 109.81 9.52 112.19Z"/>
</defs>
</svg>
