<svg width="111" height="146" viewBox="0 0 111 146" version="1.1" xmlns="http://www.w3.org/2000/svg" xmlns:xlink="http://www.w3.org/1999/xlink">
<title>4</title>
<desc>Created using Figma</desc>
<g id="Canvas" transform="translate(38 -1367)">
<g id="4">
<g id="Union">
<use xlink:href="#path0_fill" transform="translate(-37.8051 1367)"/>
</g>
<g id="4">
<use xlink:href="#path1_fill" transform="translate(-38 1369.47)" fill="#FFFFFF"/>
</g>
</g>
</g>
<defs>
<path id="path0_fill" fill-rule="evenodd" d="M 107.794 1.35952C 108.759 1.60084 109.483 2.0835 109.966 2.80751C 110.569 3.41084 110.811 4.19518 110.69 5.1605C 110.69 6.12584 110.388 6.91018 109.785 7.51351C 109.182 8.11684 108.397 8.41851 107.432 8.41851C 107.232 8.43278 107.033 8.44796 106.833 8.46402C 106.818 8.48066 106.801 8.49714 106.785 8.51351C 106.468 8.83057 106.101 9.0643 105.684 9.21475C 105.73 9.50789 105.732 9.82315 105.69 10.1605C 105.69 11.1258 105.388 11.9102 104.785 12.5135C 104.182 13.1168 103.397 13.4185 102.432 13.4185C 95.6747 13.9012 89.2794 15.4095 83.2461 17.9435C 77.3334 20.3568 71.8431 23.4338 66.7751 27.1745C 64.0079 29.2169 61.3666 31.4033 58.8513 33.7335C 58.5109 34.1008 58.1732 34.4711 57.8381 34.8445C 53.6147 39.4298 49.8137 44.0755 46.4351 48.7815C 43.0564 53.4875 40.0397 58.0125 37.3851 62.3565C 34.8511 66.7005 32.7394 70.5015 31.0501 73.7595C 34.1874 73.2768 37.4454 72.8545 40.8241 72.4925C 44.3234 72.0098 47.8831 71.5875 51.5031 71.2255C 56.9015 70.5057 61.8303 70.0207 66.2895 69.7706L 70.5761 35.3195C 70.6582 34.3342 71.2711 33.4326 72.4149 32.6149L 72.5761 31.3195C 72.6967 29.8715 73.9638 28.6045 76.3771 27.5185C 77.5618 27.0108 78.7597 26.5954 79.9707 26.2723C 82.3159 25.3316 84.7123 24.75 87.1601 24.5275C 89.9354 24.2862 92.4091 24.6482 94.5811 25.6135C 96.7531 26.5788 97.6581 28.4492 97.2961 31.2245L 92.4091 69.5965C 96.6324 70.0792 99.7697 70.7428 101.821 71.5875C 103.993 72.4322 105.562 73.3372 106.527 74.3025C 108.578 76.3538 109.423 78.6465 109.061 81.1805C 108.82 82.1458 108.277 82.9905 107.432 83.7145C 106.708 84.3178 105.863 84.5592 104.898 84.4385C 104.854 84.4276 104.811 84.4162 104.768 84.4043C 104.662 84.51 104.55 84.6134 104.432 84.7145C 104.337 84.7935 104.24 84.8663 104.142 84.9329C 104.148 85.342 104.121 85.7579 104.061 86.1805C 103.82 87.1458 103.277 87.9905 102.432 88.7145C 101.708 89.3178 100.863 89.5592 99.8981 89.4385C 98.9327 89.1972 98.1484 88.7145 97.5451 87.9905C 96.9418 87.1458 96.7004 86.2408 96.8211 85.2755C 96.8211 85.0342 96.7004 84.8532 96.4591 84.7325C 96.0971 84.3705 95.1921 83.8878 93.7441 83.2845C 93.0562 82.9718 92.0766 82.6916 90.8054 82.4437L 84.2641 134.938C 84.0227 136.506 82.6954 137.713 80.2821 138.558C 79.9896 138.681 79.6932 138.796 79.3929 138.903L 79.2641 139.938C 79.0227 141.506 77.6954 142.713 75.2821 143.558C 72.9894 144.523 70.4554 145.006 67.6801 145.006C 65.0254 145.006 62.6121 144.523 60.4401 143.558C 58.2681 142.592 57.3027 141.084 57.5441 139.033L 64.7841 81.8365C 62.2501 82.0778 59.5351 82.3192 56.6391 82.5605C 53.7431 82.6812 50.6058 82.9828 47.2271 83.4655C 41.7971 84.0688 36.4877 84.7325 31.2991 85.4565C 26.1104 86.1805 21.5251 86.8442 17.5431 87.4475C 13.5611 88.0508 10.3634 88.5938 7.95008 89.0765L 4.33007 89.6195L 3.78707 89.6195C 2.58041 89.6195 1.61507 89.1972 0.891076 88.3525C -0.0742563 87.2665 -0.255256 86.0598 0.348076 84.7325C 0.468743 84.4912 1.07208 83.0432 2.15807 80.3885C 2.9995 78.5374 4.07562 76.3342 5.38644 73.779C 6.43162 71.6222 7.71148 69.1134 9.22608 66.2525C 11.3981 62.1498 14.0527 57.5645 17.1901 52.4965C 20.4481 47.3078 24.1887 42.1192 28.4121 36.9305C 38.3067 24.6225 48.9254 15.3915 60.2681 9.23751C 64.539 6.95967 68.8415 5.15423 73.1754 3.82119C 84.4985 -0.245769 96.0381 -1.06633 107.794 1.35952Z"/>
<path id="path1_fill" d="M 99.575 -0.6C 100.508 -0.366667 101.208 0.1 101.675 0.8C 102.258 1.38333 102.492 2.14167 102.375 3.075C 102.375 4.00833 102.083 4.76667 101.5 5.35C 100.917 5.93333 100.158 6.225 99.225 6.225C 92.6917 6.69167 86.5083 8.15 80.675 10.6C 74.9583 12.9333 69.65 15.9083 64.75 19.525C 59.85 23.1417 55.3583 27.225 51.275 31.775C 47.1917 36.2083 43.5167 40.7 40.25 45.25C 36.9833 49.8 34.0667 54.175 31.5 58.375C 29.05 62.575 27.0083 66.25 25.375 69.4C 28.4083 68.9333 31.5583 68.525 34.825 68.175C 38.2083 67.7083 41.65 67.3 45.15 66.95C 52.15 66.0167 58.3333 65.4917 63.7 65.375L 68.425 27.4C 68.5417 26 69.7667 24.775 72.1 23.725C 74.55 22.675 77.0583 22.0333 79.625 21.8C 82.3083 21.5667 84.7 21.9167 86.8 22.85C 88.9 23.7833 89.775 25.5917 89.425 28.275L 84.7 65.375C 88.7833 65.8417 91.8167 66.4833 93.8 67.3C 95.9 68.1167 97.4167 68.9917 98.35 69.925C 100.333 71.9083 101.15 74.125 100.8 76.575C 100.567 77.5083 100.042 78.325 99.225 79.025C 98.525 79.6083 97.7083 79.8417 96.775 79.725C 95.8417 79.4917 95.0833 79.025 94.5 78.325C 93.9167 77.5083 93.6833 76.6333 93.8 75.7C 93.8 75.4667 93.6833 75.2917 93.45 75.175C 93.1 74.825 92.225 74.3583 90.825 73.775C 89.5417 73.1917 87.2083 72.725 83.825 72.375L 76.825 128.55C 76.5917 130.067 75.3083 131.233 72.975 132.05C 70.7583 132.983 68.3083 133.45 65.625 133.45C 63.0583 133.45 60.725 132.983 58.625 132.05C 56.525 131.117 55.5917 129.658 55.825 127.675L 62.825 72.375C 60.375 72.6083 57.75 72.8417 54.95 73.075C 52.15 73.1917 49.1167 73.4833 45.85 73.95C 40.6 74.5333 35.4667 75.175 30.45 75.875C 25.4333 76.575 21 77.2167 17.15 77.8C 13.3 78.3833 10.2083 78.9083 7.875 79.375C 5.54167 79.725 4.375 79.9 4.375 79.9L 3.85 79.9C 2.68333 79.9 1.75 79.4917 1.05 78.675C 0.116667 77.625 -0.0583333 76.4583 0.525 75.175C 0.641667 74.9417 1.225 73.5417 2.275 70.975C 3.44167 68.4083 5.075 65.1417 7.175 61.175C 9.275 57.2083 11.8417 52.775 14.875 47.875C 18.025 42.8583 21.6417 37.8417 25.725 32.825C 35.2917 20.925 45.5583 12 56.525 6.05C 70.525 -1.41667 84.875 -3.63333 99.575 -0.6Z"/>
</defs>
</svg>
