<svg width="118" height="165" viewBox="0 0 118 165" version="1.1" xmlns="http://www.w3.org/2000/svg" xmlns:xlink="http://www.w3.org/1999/xlink" xmlns:figma="http://www.figma.com/figma/ns">
<title>8-red</title>
<desc>Created using Figma</desc>
<g id="Canvas" transform="translate(-720 108)" figma:type="canvas">
<g id="8-red" figma:type="frame">
<g id="Union" figma:type="vector-operation">
<use xlink:href="#path0_fill" transform="translate(720.682 -102.34)"/>
</g>
<g id="8" figma:type="text">
<use xlink:href="#path1_fill" transform="translate(716 -107)" fill="#BB3C3C"/>
</g>
</g>
</g>
<defs>
<path id="path0_fill" fill-rule="evenodd" d="M 98.0267 6.86471C 97.5203 6.52609 96.9939 6.20945 96.4475 5.91478C 92.39 2.60627 86.832 0.952007 79.7737 0.952007C 74.0676 0.952007 68.8303 2.52874 64.0617 5.68219C 63.9987 5.63519 63.9334 5.58912 63.8657 5.54399C 63.0497 5 61.9617 4.86399 60.6017 5.13601C 59.9907 5.28874 59.2887 5.48435 58.4955 5.72284C 58.4829 5.32955 58.4157 4.94993 58.2937 4.584C 58.1577 3.76801 57.6817 3.08799 56.8657 2.544C 56.3829 2.22216 55.8049 2.04313 55.1318 2.0069C 54.9032 1.44191 54.4811 0.954273 53.8657 0.543995C 53.0497 3.96212e-06 51.9617 -0.136005 50.6017 0.136006C 48.4257 0.679997 45.0937 1.76801 40.6057 3.4C 36.1177 4.896 31.9697 7.07199 28.1617 9.928C 23.4017 13.736 19.6617 18.156 16.9417 23.188C 14.2217 28.084 12.9977 33.116 13.2697 38.284C 13.5417 46.988 17.8257 55.284 26.1217 63.172C 28.7057 65.62 31.4257 67.864 34.2817 69.904C 35.3756 70.6499 36.4786 71.3866 37.5907 72.1143C 39.4789 73.3968 41.3941 74.6522 43.3363 75.8806C 39.437 77.7673 35.6708 79.7871 32.0377 81.94C 28.3657 84.116 24.8297 86.428 21.4297 88.876C 11.0937 96.492 4.49769 104.516 1.64168 112.948C -0.126268 118.116 -0.466294 123.284 0.621718 128.452C 1.84572 133.484 4.4297 137.972 8.37373 141.916C 10.2933 143.836 12.4866 145.531 14.9536 147.003C 18.1921 149.413 22.0055 151.352 26.3941 152.82C 29.3444 154.411 32.6549 155.707 36.3257 156.708C 43.8057 158.612 51.6257 159.428 59.7857 159.156C 67.9457 159.02 75.7657 157.932 83.2457 155.892C 90.8617 153.716 96.9817 150.86 101.606 147.324C 106.502 143.516 110.242 139.164 112.826 134.268C 115.546 129.372 116.838 124.34 116.702 119.172C 116.702 111.012 111.398 101.492 100.79 90.612C 97.2537 87.212 93.7857 84.152 90.3857 81.432C 87.1217 78.712 84.4017 76.536 82.2257 74.904C 83.9937 73.816 85.6937 72.796 87.3257 71.844C 88.9577 70.756 90.5897 69.6 92.2217 68.376C 97.2537 64.704 101.402 60.828 104.666 56.748C 108.066 52.668 110.514 48.52 112.01 44.304C 112.69 42.264 113.234 39.952 113.642 37.368C 114.186 34.784 114.39 32.2 114.254 29.616C 114.254 26.896 113.914 24.312 113.234 21.864C 112.554 19.28 111.466 16.9 109.97 14.724C 107.206 10.7624 103.225 8.1426 98.0267 6.86471ZM 69.6469 51.1476C 66.682 50.5861 64.0589 49.3609 61.7777 47.472C 59.6536 46.361 57.7643 44.7943 56.1097 42.772C 53.9337 40.46 52.3697 37.74 51.4177 34.612C 50.9888 32.8965 50.729 31.1999 50.6383 29.522C 50.3507 30.1512 50.0678 30.7946 49.7897 31.452C 48.4297 34.988 47.7497 38.864 47.7497 43.08C 47.7497 45.8 48.6337 48.452 50.4017 51.036C 52.1697 53.484 54.3457 55.864 56.9297 58.176C 59.5137 60.352 62.2337 62.392 65.0897 64.296C 65.1728 64.3451 65.2558 64.3941 65.3385 64.4429C 69.8288 61.9731 73.8245 59.4415 77.3257 56.848C 78.416 56.0715 79.4572 55.2901 80.4492 54.5036C 76.2852 54.4783 72.6845 53.3597 69.6469 51.1476ZM 84.6507 50.8647C 89.4531 46.2904 92.6555 41.5529 94.2577 36.652C 94.6657 35.428 95.0737 33.932 95.4817 32.164C 95.8897 30.26 96.0937 28.288 96.0937 26.248C 96.2297 24.072 96.0937 21.964 95.6857 19.924C 95.2777 17.884 94.4617 16.048 93.2377 14.416C 93.2082 14.3735 93.1785 14.3312 93.1485 14.2892C 92.0917 14.1711 90.9668 14.112 89.7737 14.112C 87.0537 14.112 84.4697 14.656 82.0217 15.744C 79.7097 16.696 77.6017 17.988 75.6977 19.62C 73.9297 21.252 72.4337 23.088 71.2097 25.128C 69.9857 27.168 69.2377 29.208 68.9657 31.248C 68.6937 33.288 68.8297 35.328 69.3737 37.368C 69.7941 38.8395 70.4583 40.1891 71.366 41.4169C 72.1383 41.5675 72.8328 41.9512 73.4497 42.568C 73.7051 42.8234 73.9205 43.0921 74.096 43.3742C 74.9772 43.4821 75.7618 43.8801 76.4497 44.568C 76.8743 44.9926 77.1884 45.4539 77.392 45.9521C 78.3722 46.2134 79.4394 46.344 80.5937 46.344C 81.6817 46.344 82.6337 46.752 83.4497 47.568C 84.2657 48.384 84.6737 49.336 84.6737 50.424C 84.6737 50.5735 84.666 50.7204 84.6507 50.8647ZM 60.4877 86.4901C 61.7756 87.295 63.0548 88.1086 64.3253 88.9309C 67.1185 90.8839 69.684 92.9736 72.0217 95.2C 74.3337 97.376 76.5777 100.096 78.7537 103.36C 80.9297 106.624 82.0857 110.296 82.2217 114.376C 82.3577 118.184 81.3377 121.992 79.1617 125.8C 77.1217 129.608 74.1977 133.008 70.3897 136C 66.3097 139.128 61.6177 141.576 56.3137 143.344C 51.0097 144.976 45.7057 145.792 40.4017 145.792C 35.5939 145.792 31.0654 145.122 26.8164 143.781C 25.841 143.044 24.9308 142.253 24.0857 141.408C 21.3657 138.552 19.5297 135.288 18.5777 131.616C 17.7617 127.944 18.0337 124.272 19.3937 120.6C 21.7057 113.8 27.3497 107.068 36.3257 100.404C 40.1337 97.684 44.2137 95.168 48.5657 92.856C 52.5397 90.6206 56.5137 88.4987 60.4877 86.4901Z"/>
<path id="path1_fill" d="M 111.384 113.832C 111.52 119 110.228 124.032 107.508 128.928C 104.924 133.824 101.184 138.176 96.288 141.984C 91.664 145.52 85.544 148.376 77.928 150.552C 70.448 152.592 62.628 153.68 54.468 153.816C 46.308 154.088 38.488 153.272 31.008 151.368C 23.528 149.328 17.544 146.064 13.056 141.576C 9.112 137.632 6.528 133.144 5.304 128.112C 4.216 122.944 4.556 117.776 6.324 112.608C 9.18 104.176 15.776 96.152 26.112 88.536C 29.512 86.088 33.048 83.776 36.72 81.6C 40.392 79.424 44.2 77.384 48.144 75.48C 45.016 73.576 41.956 71.604 38.964 69.564C 36.108 67.524 33.388 65.28 30.804 62.832C 22.508 54.944 18.224 46.648 17.952 37.944C 17.68 32.776 18.904 27.744 21.624 22.848C 24.344 17.816 28.084 13.396 32.844 9.588C 36.652 6.732 40.8 4.556 45.288 3.06C 49.776 1.42801 53.108 0.34 55.284 -0.203997C 56.644 -0.476002 57.732 -0.34 58.548 0.203997C 59.364 0.747994 59.84 1.42801 59.976 2.244C 60.248 3.06 60.248 3.94401 59.976 4.896C 59.704 5.848 59.16 6.596 58.344 7.14001C 57.8 7.548 56.644 8.568 54.876 10.2C 53.108 11.832 51.272 14.008 49.368 16.728C 47.6 19.448 45.968 22.576 44.472 26.112C 43.112 29.648 42.432 33.524 42.432 37.74C 42.432 40.46 43.316 43.112 45.084 45.696C 46.852 48.144 49.028 50.524 51.612 52.836C 54.196 55.012 56.916 57.052 59.772 58.956C 62.764 60.724 65.484 62.288 67.932 63.648C 68.204 63.92 68.408 64.124 68.544 64.26C 68.816 64.26 69.088 64.328 69.36 64.464C 74.12 61.88 78.336 59.228 82.008 56.508C 90.984 50.116 96.628 43.384 98.94 36.312C 99.348 35.088 99.756 33.592 100.164 31.824C 100.572 29.92 100.776 27.948 100.776 25.908C 100.912 23.732 100.776 21.624 100.368 19.584C 99.96 17.544 99.144 15.708 97.92 14.076C 95.472 10.54 90.984 8.772 84.456 8.772C 81.736 8.772 79.152 9.31601 76.704 10.404C 74.392 11.356 72.284 12.648 70.38 14.28C 68.612 15.912 67.116 17.748 65.892 19.788C 64.668 21.828 63.92 23.868 63.648 25.908C 63.376 27.948 63.512 29.988 64.056 32.028C 64.6 33.932 65.552 35.632 66.912 37.128C 67.592 38.08 68.612 38.964 69.972 39.78C 71.468 40.596 73.236 41.004 75.276 41.004C 76.364 41.004 77.316 41.412 78.132 42.228C 78.948 43.044 79.356 43.996 79.356 45.084C 79.356 46.172 78.948 47.124 78.132 47.94C 77.316 48.756 76.364 49.164 75.276 49.164C 69.292 49.164 64.464 46.92 60.792 42.432C 58.616 40.12 57.052 37.4 56.1 34.272C 55.284 31.008 55.08 27.812 55.488 24.684C 56.576 18.564 59.772 13.056 65.076 8.16C 70.788 3.128 77.248 0.612004 84.456 0.612004C 93.84 0.612004 100.572 3.536 104.652 9.384C 106.148 11.56 107.236 13.94 107.916 16.524C 108.596 18.972 108.936 21.556 108.936 24.276C 109.072 26.86 108.868 29.444 108.324 32.028C 107.916 34.612 107.372 36.924 106.692 38.964C 105.196 43.18 102.748 47.328 99.348 51.408C 96.084 55.488 91.936 59.364 86.904 63.036C 85.272 64.26 83.64 65.416 82.008 66.504C 80.376 67.456 78.676 68.476 76.908 69.564C 79.084 71.196 81.804 73.372 85.068 76.092C 88.468 78.812 91.936 81.872 95.472 85.272C 106.08 96.152 111.384 105.672 111.384 113.832ZM 18.768 136.068C 21.76 139.06 25.568 141.372 30.192 143.004C 34.816 144.636 39.78 145.452 45.084 145.452C 50.388 145.452 55.692 144.636 60.996 143.004C 66.3 141.236 70.992 138.788 75.072 135.66C 78.88 132.668 81.804 129.268 83.844 125.46C 86.02 121.652 87.04 117.844 86.904 114.036C 86.768 109.956 85.612 106.284 83.436 103.02C 81.26 99.756 79.016 97.036 76.704 94.86C 73.848 92.14 70.652 89.624 67.116 87.312C 63.58 85 59.976 82.756 56.304 80.58C 51.952 82.756 47.6 85.068 43.248 87.516C 38.896 89.828 34.816 92.344 31.008 95.064C 22.032 101.728 16.388 108.46 14.076 115.26C 12.716 118.932 12.444 122.604 13.26 126.276C 14.212 129.948 16.048 133.212 18.768 136.068Z"/>
</defs>
</svg>
