<svg width="92" height="142" viewBox="0 0 92 142" version="1.1" xmlns="http://www.w3.org/2000/svg" xmlns:xlink="http://www.w3.org/1999/xlink" xmlns:figma="http://www.figma.com/figma/ns">
<title>9-red</title>
<desc>Created using Figma</desc>
<g id="Canvas" transform="translate(371 89)" figma:type="canvas">
<g id="9-red" figma:type="frame">
<g id="9" figma:type="text">
<use xlink:href="#path0_fill" transform="translate(-369 -87.59)" fill="#333333"/>
</g>
<g id="9" figma:type="text">
<use xlink:href="#path0_fill" transform="translate(-365 -83.59)" fill="#333333"/>
</g>
<g id="9" figma:type="text">
<use xlink:href="#path0_fill" transform="translate(-371 -88)" fill="#BB3C3C"/>
</g>
</g>
</g>
<defs>
<path id="path0_fill" d="M 5.58 129.42C 1.5 125.1 -0.18 119.34 0.54 112.14C 0.66 111.18 1.08 110.4 1.8 109.8C 2.52 109.08 3.36 108.78 4.32 108.9C 5.28 109.02 6.12 109.5 6.84 110.34C 7.56 111.06 7.86 111.9 7.74 112.86C 7.5 114.18 7.5 116.04 7.74 118.44C 8.1 120.72 9.12 122.76 10.8 124.56C 12.48 126.48 14.4 127.5 16.56 127.62C 18.84 127.74 21.12 127.32 23.4 126.36C 25.68 125.4 27.96 124.02 30.24 122.22C 32.64 120.42 34.86 118.5 36.9 116.46C 38.94 114.3 40.74 112.2 42.3 110.16C 43.98 108.12 45.3 106.38 46.26 104.94C 49.86 99.54 52.98 93.66 55.62 87.3C 58.26 80.82 60.3 74.16 61.74 67.32C 61.98 65.88 62.22 64.5 62.46 63.18C 62.7 61.74 62.94 60.36 63.18 59.04C 61.5 60 59.88 60.84 58.32 61.56C 56.88 62.16 55.32 62.76 53.64 63.36C 48.6 65.04 43.62 65.82 38.7 65.7C 33.78 65.58 29.22 64.62 25.02 62.82C 18.78 60.18 14.04 56.22 10.8 50.94C 7.56 45.66 6.36 39.84 7.2 33.48C 7.8 29.04 9.3 24.72 11.7 20.52C 14.1 16.32 17.22 12.66 21.06 9.54C 25.02 6.18 29.4 3.6 34.2 1.8C 39 9.76996e-15 43.92 -0.9 48.96 -0.9C 59.64 -0.9 68.22 3.06 74.7 10.98C 77.94 14.94 80.34 19.32 81.9 24.12C 83.58 28.8 84.66 33.66 85.14 38.7C 85.74 43.62 85.8 48.66 85.32 53.82C 84.84 58.98 84.12 63.96 83.16 68.76C 81.48 77.16 78.84 85.26 75.24 93.06C 71.64 100.86 67.5 107.76 62.82 113.76C 57.06 121.08 50.82 126.6 44.1 130.32C 37.38 134.04 30.3 135.9 22.86 135.9C 15.06 135.9 9.3 133.74 5.58 129.42ZM 51.3 56.52C 53.46 55.8 55.56 54.9 57.6 53.82C 59.76 52.74 61.86 51.54 63.9 50.22C 64.14 43.74 63.6 37.8 62.28 32.4C 60.96 26.88 58.98 22.2 56.34 18.36C 53.94 15 51.3 12.6 48.42 11.16C 45.54 9.72 42.6 9.06 39.6 9.18C 36.6 9.18 33.66 9.9 30.78 11.34C 28.02 12.78 25.44 14.7 23.04 17.1C 20.76 19.38 18.84 22.02 17.28 25.02C 15.72 28.02 14.76 31.14 14.4 34.38C 13.8 39.18 14.7 43.5 17.1 47.34C 19.5 51.18 23.1 54.12 27.9 56.16C 34.98 59.16 42.78 59.28 51.3 56.52Z"/>
</defs>
</svg>
