<svg width="107" height="140" viewBox="0 0 107 140" version="1.1" xmlns="http://www.w3.org/2000/svg" xmlns:xlink="http://www.w3.org/1999/xlink" xmlns:figma="http://www.figma.com/figma/ns">
<title>0-red</title>
<desc>Created using Figma</desc>
<g id="Canvas" transform="translate(25 -100)" figma:type="canvas">
<g id="0-red" figma:type="frame">
<g id="Union" figma:type="vector-operation">
<use xlink:href="#path0_fill" transform="translate(-24.4248 101.83)"/>
</g>
<g id="0" figma:type="text">
<use xlink:href="#path1_fill" transform="translate(-29 100)" fill="#BB3C3C"/>
</g>
</g>
</g>
<defs>
<path id="path0_fill" fill-rule="evenodd" d="M 105.101 71.6557C 106.565 58.8457 106.443 47.3777 104.735 37.2517C 103.027 26.8817 99.8547 19.0737 95.2187 13.8277C 90.9487 8.94766 85.8247 6.50766 79.8467 6.50766C 78.3155 6.50766 76.8314 6.66606 75.3944 6.98286C 74.928 6.95139 74.4561 6.93566 73.9787 6.93566C 65.8941 6.93566 59.1367 11.4003 53.7067 20.3297C 51.5347 23.9497 49.8454 28.0523 48.6387 32.6377C 47.4321 37.1023 46.7684 41.5067 46.6477 45.8507C 46.6477 52.8493 47.9751 58.4 50.6297 62.5027C 53.8877 67.812 58.7144 70.4667 65.1097 70.4667C 65.6311 70.5318 66.1173 70.4738 66.5683 70.2925C 67.9172 70.5913 69.3543 70.7407 70.8797 70.7407C 71.8557 70.8627 72.7097 70.5577 73.4417 69.8257C 74.2957 69.0937 74.7227 68.2397 74.7227 67.2637C 74.7227 66.2877 74.3567 65.4337 73.6247 64.7017C 72.8927 63.9697 72.0387 63.5427 71.0627 63.4207C 67.2807 63.4207 64.4137 61.8957 62.4617 58.8457C 61.4857 57.2597 60.7537 55.3687 60.2657 53.1727C 59.7777 50.9767 59.5337 48.5977 59.5337 46.0357C 59.5337 42.1316 60.0827 38.2277 61.1807 34.3237C 62.2787 30.4197 63.8037 26.8817 65.7557 23.7097C 66.2437 22.8557 66.9147 21.8797 67.7687 20.7817C 68.7447 19.5617 69.7817 18.4637 70.8797 17.4877C 72.0997 16.3897 73.4417 15.5357 74.9057 14.9257C 75.3233 14.7169 75.7508 14.5379 76.1882 14.3886C 79.0463 14.914 81.5678 16.4117 83.7527 18.8817C 87.6141 23.2257 90.2084 29.9226 91.5357 38.9727C 92.9837 48.0227 93.0441 58.5207 91.7167 70.4667C 90.7514 78.5513 88.8811 86.1533 86.1057 93.2727C 83.3304 100.392 79.8311 106.667 75.6077 112.097C 71.6257 117.044 67.5834 120.604 63.4807 122.776C 59.4987 124.827 55.5771 125.853 51.7157 125.853C 51.5587 125.853 51.4019 125.851 51.2455 125.848C 49.6405 125.365 48.0722 124.686 46.5407 123.811C 43.1247 121.859 40.0747 119.297 37.3907 116.125C 34.8287 112.953 32.6327 109.293 30.8027 105.145C 29.0947 100.997 28.0577 96.6657 27.6917 92.1517C 26.9597 84.0997 27.3257 75.6207 28.7897 66.7147C 30.3757 57.8087 33.0597 49.1467 36.8417 40.7287C 40.6237 32.3106 45.0767 25.1737 50.2007 19.3177C 55.4467 13.4617 60.9367 9.43566 66.6707 7.23967C 68.5007 6.62967 69.2937 5.34866 69.0497 3.39666C 68.8057 1.56666 67.7687 0.529659 65.9387 0.285656C 62.4559 -0.156605 59.0232 -0.0853236 55.6406 0.499492C 49.6537 0.5275 43.8204 2.12989 38.1407 5.30666C 31.0214 9.168 24.5054 15.322 18.5927 23.7687C 14.1281 30.164 10.4477 37.2833 7.55172 45.1267C 5.98305 48.988 4.65572 52.9097 3.56972 56.8917C 2.60439 60.8737 1.82005 64.916 1.21672 69.0187C -0.110612 77.8273 -0.351945 86.1533 0.492723 93.9967C 1.45805 101.719 3.50939 108.537 6.64672 114.45C 13.092 127.023 23.3306 134.184 37.3626 135.933C 40.9855 136.821 44.8989 137.294 49.1027 137.353L 49.4687 137.353C 56.7887 137.353 63.7427 135.523 70.3307 131.863C 76.4307 128.569 82.0427 123.75 87.1667 117.406C 91.9247 111.428 95.8287 104.535 98.8787 96.7267C 102.051 88.7967 104.125 80.4397 105.101 71.6557Z"/>
<path id="path1_fill" d="M 103.17 37.174C 104.859 47.1893 104.98 58.532 103.532 71.202C 102.567 79.89 100.515 88.1557 97.378 95.999C 94.3613 103.722 90.5 110.539 85.794 116.452C 80.726 122.727 75.1753 127.493 69.142 130.751C 62.626 134.371 55.748 136.181 48.508 136.181L 48.146 136.181C 30.8907 135.94 18.5827 128.639 11.222 114.28C 8.08467 108.367 6.03333 101.55 5.068 93.827C 4.22333 85.9837 4.46467 77.6577 5.792 68.849C 6.39533 64.7463 7.17967 60.704 8.145 56.722C 9.231 52.74 10.5583 48.8183 12.127 44.957C 15.023 37.1137 18.7033 29.9943 23.168 23.599C 29.0807 15.1523 35.5967 8.99834 42.716 5.137C 49.8353 1.155 57.196 -0.353333 64.798 0.611995C 66.608 0.853333 67.6337 1.879 67.875 3.689C 68.1163 5.61967 67.332 6.88667 65.522 7.49C 59.8507 9.662 54.4207 13.644 49.232 19.436C 44.164 25.228 39.7597 32.287 36.019 40.613C 32.2783 48.939 29.6237 57.5063 28.055 66.315C 26.607 75.1237 26.245 83.51 26.969 91.474C 27.331 95.9387 28.3567 100.222 30.046 104.325C 31.856 108.428 34.028 112.048 36.562 115.185C 39.2167 118.322 42.2333 120.856 45.612 122.787C 48.9907 124.718 52.5503 125.683 56.291 125.683C 60.1523 125.683 64.074 124.657 68.056 122.606C 72.1587 120.434 76.201 116.874 80.183 111.927C 84.4063 106.497 87.9057 100.222 90.681 93.103C 93.4563 85.9837 95.3267 78.3817 96.292 70.297C 97.6193 58.351 97.559 47.853 96.111 38.803C 94.7837 29.753 92.1893 23.056 88.328 18.712C 85.5527 15.5747 82.2343 14.006 78.373 14.006C 76.6837 14.006 75.115 14.368 73.667 15.092C 72.219 15.6953 70.8917 16.54 69.685 17.626C 68.599 18.5913 67.5733 19.6773 66.608 20.884C 65.7633 21.97 65.0997 22.9353 64.617 23.78C 62.6863 26.9173 61.178 30.4167 60.092 34.278C 59.006 38.1393 58.463 42.0007 58.463 45.862C 58.463 48.396 58.7043 50.749 59.187 52.921C 59.6697 55.093 60.3937 56.9633 61.359 58.532C 63.2897 61.5487 66.1253 63.057 69.866 63.057C 70.8313 63.1777 71.676 63.6 72.4 64.324C 73.124 65.048 73.486 65.8927 73.486 66.858C 73.486 67.8233 73.0637 68.668 72.219 69.392C 71.495 70.116 70.6503 70.4177 69.685 70.297C 63.2897 70.297 58.463 67.6423 55.205 62.333C 52.5503 58.2303 51.223 52.6797 51.223 45.681C 51.3437 41.337 52.0073 36.9327 53.214 32.468C 54.4207 27.8827 56.11 23.78 58.282 20.16C 63.712 11.2307 70.4693 6.766 78.554 6.766C 84.4667 6.766 89.5347 9.17933 93.758 14.006C 98.3433 19.1947 101.481 26.9173 103.17 37.174Z"/>
</defs>
</svg>
