<svg width="93" height="138" viewBox="0 0 93 138" version="1.1" xmlns="http://www.w3.org/2000/svg" xmlns:xlink="http://www.w3.org/1999/xlink" xmlns:figma="http://www.figma.com/figma/ns">
<title>3-green</title>
<desc>Created using Figma</desc>
<g id="Canvas" transform="translate(144 489)" figma:type="canvas">
<g id="3-green" figma:type="frame">
<g id="Union" figma:type="vector-operation">
<use xlink:href="#path0_fill" transform="translate(-143.958 -483.55)" fill="#333333"/>
</g>
<g id="3" figma:type="text">
<use xlink:href="#path1_fill" transform="translate(-144 -483.001)" fill="#6FCF97"/>
</g>
</g>
</g>
<defs>
<path id="path0_fill" fill-rule="evenodd" d="M 92.0582 6.78857C 92.8282 8.43856 92.4982 9.81358 91.0682 10.9136L 52.4582 42.0986C 63.4582 43.4186 71.7082 47.3236 77.2082 53.8136C 83.9182 61.1836 86.4482 71.7436 84.7982 85.4936C 84.2482 89.7836 83.3682 93.6886 82.1582 97.2086C 80.9482 100.729 79.5182 103.919 77.8682 106.779C 76.3282 109.529 74.6232 111.949 72.7532 114.039C 70.9932 116.129 69.2882 117.889 67.6382 119.319C 67.1066 119.778 66.5694 120.225 66.0266 120.658C 65.8243 120.842 65.6229 121.021 65.4222 121.195C 61.3029 124.757 56.8495 127.541 52.0622 129.545C 47.2749 131.437 42.5432 132.384 37.8672 132.384C 37.2521 132.384 36.6472 132.377 36.0523 132.363C 35.6569 132.377 35.2619 132.384 34.8672 132.384C 26.9625 132.384 20.7279 131.27 16.1632 129.044C 11.7099 126.706 8.42554 124.312 6.31022 121.863C 3.86088 119.079 2.07955 115.962 0.966209 112.511C -0.0357902 108.948 -0.258446 105.218 0.298209 101.322C 0.854881 96.3116 2.13522 92.3592 4.13921 89.4646C 6.25454 86.5699 8.25855 84.3432 10.1512 82.7846C 12.4892 80.8919 15.0499 79.5002 17.8332 78.6096C 19.2942 78.16 20.7551 77.8665 22.216 77.7289C 22.6655 77.5532 23.1213 77.3914 23.5832 77.2436C 26.4432 76.3636 29.3032 76.0886 32.1632 76.4186C 36.2332 76.9686 39.5332 78.6736 42.0632 81.5336C 44.7032 84.8336 45.6932 88.7936 45.0332 93.4136C 44.9232 94.2936 44.4832 95.0636 43.7132 95.7236C 43.2114 96.1417 42.6461 96.3691 42.0171 96.4058C 41.8069 96.7283 41.537 97.0309 41.2072 97.3136C 40.5392 97.8702 39.7599 98.0929 38.8692 97.9816C 38.5007 97.8894 38.1512 97.7592 37.8208 97.5908C 37.2439 97.9418 36.5933 98.0721 35.8692 97.9816C 34.9785 97.7589 34.1992 97.3136 33.5312 96.6456C 32.9745 95.8662 32.8075 95.0312 33.0302 94.1406C 33.2529 92.1366 33.0859 90.5222 32.5292 89.2976C 31.9725 88.0729 31.2489 87.1266 30.3582 86.4586C 29.5789 85.7906 28.6882 85.3452 27.6862 85.1226C 26.7955 84.7886 26.1275 84.5659 25.6822 84.4546C 25.678 84.454 25.6739 84.4535 25.6697 84.4529C 24.8679 84.548 24.0351 84.7156 23.1712 84.9556C 22.588 85.1176 22.0095 85.3173 21.4358 85.5547C 20.9936 85.8404 20.5544 86.15 20.1182 86.4836C 18.3582 87.8036 16.8182 89.6186 15.4982 91.9286C 14.1782 94.2386 13.2982 97.0436 12.8582 100.344C 11.9782 106.394 13.4082 111.454 17.1482 115.524C 19.7882 118.604 22.6482 120.639 25.7282 121.629C 28.9182 122.619 32.1082 122.839 35.2982 122.289C 35.4591 122.255 35.6199 122.22 35.7805 122.184C 36.9308 121.657 38.0737 121.049 39.2092 120.36C 42.3265 118.356 45.1656 116.018 47.7262 113.346C 50.7322 110.117 53.2929 106.276 55.4082 101.823C 57.6349 97.3692 59.1379 92.1366 59.9172 86.1246C 61.2532 74.4346 59.2492 65.4722 53.9052 59.2376C 52.0126 57.2336 49.8415 55.5636 47.3922 54.2276C 45.0542 52.8916 42.6049 51.8896 40.0442 51.2216C 37.4835 50.4422 34.8672 49.9412 32.1952 49.7186C 29.6345 49.3846 27.2409 49.2176 25.0142 49.2176C 23.4556 49.2176 22.3979 48.4939 21.8412 47.0466C 21.2845 45.5992 21.6185 44.3746 22.8432 43.3726L 55.3116 17.1671C 49.0268 17.7911 43.4975 18.0679 38.724 17.9975C 35.2475 18.0457 32.125 17.9314 29.3562 17.6546C 22.6762 16.8752 17.8889 15.2052 14.9942 12.6446C 12.2109 10.0839 11.0975 7.02223 11.6542 3.45956C 11.7655 2.5689 12.1552 1.84524 12.8232 1.28857C 13.6025 0.620575 14.4376 0.34224 15.3282 0.453568C 15.7064 0.548127 16.0546 0.692872 16.3726 0.887818C 16.9915 0.512719 17.6434 0.367974 18.3282 0.453568C 18.5248 0.502709 18.7132 0.565407 18.8935 0.641663C 19.5883 0.131905 20.3266 -0.0741266 21.1082 0.0235678C 21.9882 0.243569 22.7032 0.738572 23.2532 1.50857C 23.9132 2.16856 24.1882 2.93857 24.0782 3.81857C 23.7482 4.91857 24.1332 6.01857 25.2332 7.11857C 26.0032 7.77857 27.3232 8.49357 29.1932 9.26357C 31.1732 9.92356 34.2532 10.3636 38.4332 10.5836C 41.2932 10.8036 44.5382 10.8586 48.1682 10.7486C 50.6588 10.5976 53.3048 10.3949 56.1061 10.1404C 59.2988 9.75044 62.4062 9.36051 65.4282 8.97057C 68.8795 8.4139 71.9412 7.9129 74.6132 7.46758C 77.2852 6.9109 79.4006 6.46557 80.9592 6.13157L 83.4642 5.63057C 84.2312 5.47717 84.9043 5.51165 85.4834 5.73401L 85.9532 5.63357L 88.4282 5.13857C 90.0782 4.80857 91.2882 5.35857 92.0582 6.78857Z"/>
<path id="path1_fill" d="M 89.1 1.24C 89.87 2.89 89.54 4.265 88.11 5.365L 49.5 36.55C 60.5 37.87 68.75 41.775 74.25 48.265C 80.96 55.635 83.49 66.195 81.84 79.945C 81.29 84.235 80.41 88.14 79.2 91.66C 77.99 95.18 76.56 98.37 74.91 101.23C 73.37 103.98 71.665 106.4 69.795 108.49C 68.035 110.58 66.33 112.34 64.68 113.77C 60.61 117.29 56.21 120.04 51.48 122.02C 46.75 123.89 42.075 124.825 37.455 124.825C 29.645 124.825 23.485 123.725 18.975 121.525C 14.575 119.215 11.33 116.85 9.24 114.43C 6.82 111.68 5.06 108.6 3.96 105.19C 2.97 101.67 2.75 97.985 3.3 94.135C 3.85 89.185 5.115 85.28 7.095 82.42C 9.185 79.56 11.165 77.36 13.035 75.82C 15.345 73.95 17.875 72.575 20.625 71.695C 23.485 70.815 26.345 70.54 29.205 70.87C 33.275 71.42 36.575 73.125 39.105 75.985C 41.745 79.285 42.735 83.245 42.075 87.865C 41.965 88.745 41.525 89.515 40.755 90.175C 40.095 90.725 39.325 90.945 38.445 90.835C 37.565 90.615 36.795 90.175 36.135 89.515C 35.585 88.745 35.42 87.92 35.64 87.04C 35.86 85.06 35.695 83.465 35.145 82.255C 34.595 81.045 33.88 80.11 33 79.45C 32.23 78.79 31.35 78.35 30.36 78.13C 29.48 77.8 28.82 77.58 28.38 77.47C 26.73 77.25 24.915 77.415 22.935 77.965C 20.955 78.515 19.03 79.505 17.16 80.935C 15.4 82.255 13.86 84.07 12.54 86.38C 11.22 88.69 10.34 91.495 9.9 94.795C 9.02 100.845 10.45 105.905 14.19 109.975C 16.83 113.055 19.69 115.09 22.77 116.08C 25.96 117.07 29.15 117.29 32.34 116.74C 35.53 116.08 38.665 114.815 41.745 112.945C 44.825 110.965 47.63 108.655 50.16 106.015C 53.13 102.825 55.66 99.03 57.75 94.63C 59.95 90.23 61.435 85.06 62.205 79.12C 63.525 67.57 61.545 58.715 56.265 52.555C 54.395 50.575 52.25 48.925 49.83 47.605C 47.52 46.285 45.1 45.295 42.57 44.635C 40.04 43.865 37.455 43.37 34.815 43.15C 32.285 42.82 29.92 42.655 27.72 42.655C 26.18 42.655 25.135 41.94 24.585 40.51C 24.035 39.08 24.365 37.87 25.575 36.88L 58.08 10.645L 57.915 10.645C 47.245 11.855 38.61 12.13 32.01 11.47C 25.41 10.7 20.68 9.05 17.82 6.52C 15.07 3.99 13.97 0.964997 14.52 -2.555C 14.63 -3.435 15.015 -4.15 15.675 -4.7C 16.445 -5.36 17.27 -5.635 18.15 -5.525C 19.03 -5.305 19.745 -4.81 20.295 -4.04C 20.955 -3.38 21.23 -2.61 21.12 -1.73C 20.79 -0.629995 21.175 0.470004 22.275 1.57C 23.045 2.23 24.365 2.945 26.235 3.715C 28.215 4.375 31.295 4.815 35.475 5.035C 38.335 5.255 41.58 5.31 45.21 5.2C 48.84 4.98 52.8 4.65 57.09 4.21C 60.72 3.77 64.24 3.33 67.65 2.89C 71.06 2.34 74.085 1.845 76.725 1.405C 79.365 0.854995 81.455 0.414998 82.995 0.0850021C 84.645 -0.245003 85.47 -0.410001 85.47 -0.410001C 87.12 -0.739997 88.33 -0.189998 89.1 1.24Z"/>
</defs>
</svg>
