<svg width="110" height="174" viewBox="0 0 110 174" version="1.1" xmlns="http://www.w3.org/2000/svg" xmlns:xlink="http://www.w3.org/1999/xlink" xmlns:figma="http://www.figma.com/figma/ns">
<title>5-purple</title>
<desc>Created using Figma</desc>
<g id="Canvas" transform="translate(-280 -293)" figma:type="canvas">
<g id="5-purple" figma:type="frame">
<g id="Union" figma:type="vector-operation">
<use xlink:href="#path0_fill" transform="translate(282 298.78)"/>
</g>
<g id="5" figma:type="text">
<use xlink:href="#path1_fill" transform="translate(275 301.561)" fill="#BFA8D4"/>
</g>
</g>
</g>
<defs>
<path id="path0_fill" fill-rule="evenodd" d="M 45.5619 93.3564C 41.6993 90.1622 36.7386 88.5651 30.68 88.5651C 21.16 88.5651 13.68 92.3731 8.23998 99.9891C 6.33599 102.709 4.704 105.973 3.34399 109.781C 2.3189 112.856 1.62768 116.122 1.27032 119.579C 0.670616 122.137 0.28051 124.815 0.0999982 127.613C -0.579994 137.541 2.208 146.109 8.46398 153.317C 14.176 160.117 21.656 164.673 30.904 166.985C 32.536 167.257 34.236 167.461 36.004 167.597C 37.772 167.869 39.608 168.005 41.512 168.005C 45.048 168.005 48.584 167.665 52.12 166.985C 55.792 166.441 59.192 165.625 62.32 164.537C 65.2492 163.429 68.0863 162.09 70.8312 160.521C 74.9425 158.746 78.8654 156.501 82.6 153.785C 87.088 150.385 91.032 146.509 94.432 142.157C 97.832 137.805 100.552 133.113 102.592 128.081C 104.768 123.049 106.196 117.881 106.876 112.577C 107.42 107.409 107.148 102.309 106.06 97.2771C 105.108 92.1091 103.408 87.3492 100.96 82.9971C 98.512 78.6451 95.384 74.7691 91.576 71.3691C 88.7874 68.8793 85.7435 66.7906 82.4444 65.103C 79.7408 63.2204 76.834 61.6571 73.724 60.4131C 69.372 58.5091 64.68 57.3531 59.648 56.9451C 56.5098 56.6907 53.3716 56.7007 50.2335 56.9752L 56.3046 23.2469C 72.4307 23.8409 83.1866 22.0621 88.5723 17.9105C 91.0526 17.0969 93.0738 16.0804 94.636 14.8611C 97.22 12.8211 98.58 10.3731 98.716 7.51715C 98.852 6.42914 98.512 5.47714 97.696 4.66115C 97.016 3.70914 96.132 3.16514 95.044 3.02914C 94.5528 2.96774 94.0754 3.00337 93.6119 3.13602C 93.4515 2.603 93.1462 2.11137 92.696 1.66115C 92.016 0.709144 91.132 0.165145 90.044 0.0291432C 88.956 -0.106858 87.936 0.233146 86.984 1.04915C 86.168 1.72914 85.692 2.61314 85.556 3.70115C 85.556 4.24515 85.216 4.78914 84.536 5.33314C 84.128 5.74114 83.312 6.21715 82.088 6.76115C 81 7.16914 79.368 7.57715 77.192 7.98514C 75.016 8.39315 72.16 8.73315 68.624 9.00514C 65.224 9.27714 60.94 9.27714 55.772 9.00514C 52.78 8.86914 49.924 8.66514 47.204 8.39315C 44.484 8.12114 42.104 7.84914 40.064 7.57715C 37.616 7.30514 35.304 7.03315 33.128 6.76115C 32.04 6.48913 31.02 6.69314 30.068 7.37315C 29.252 8.05315 28.708 8.93714 28.436 10.0251L 15.788 75.5091C 15.686 75.9849 15.652 76.4352 15.6859 76.86L 14.788 81.5091C 14.38 83.4131 15.06 84.9091 16.828 85.9971C 18.596 86.8131 20.16 86.5411 21.52 85.1811C 22.2255 84.5313 22.9285 83.903 23.6289 83.2963C 25.072 83.7038 26.3691 83.3321 27.52 82.1811C 31.3944 78.6126 35.1924 75.6938 38.9139 73.4247C 43.3307 71.9323 48.1407 72.1111 53.344 73.9611C 61.232 77.2251 67.284 82.5971 71.5 90.0771C 73.54 93.6131 74.968 97.5571 75.784 101.909C 76.6845 105.897 76.9157 109.946 76.4777 114.056C 74.8136 121.253 71.5157 127.92 66.584 134.057C 63.728 137.865 60.328 141.197 56.384 144.053C 52.44 146.909 48.292 149.153 43.94 150.785C 39.724 152.417 35.44 152.825 31.088 152.009C 29.1056 151.561 27.2133 150.918 25.4113 150.08C 25.16 149.892 24.9109 149.699 24.664 149.501C 21.264 146.781 18.544 143.313 16.504 139.097C 14.6 134.881 13.852 130.257 14.26 125.225C 14.396 123.729 14.736 121.553 15.28 118.697C 15.824 115.841 16.844 113.053 18.34 110.333C 19.7431 107.654 21.6847 105.335 24.1645 103.374C 25.8409 102.941 27.6793 102.725 29.68 102.725C 34.304 102.725 37.908 104.017 40.492 106.601C 42.94 109.321 44.164 112.789 44.164 117.005C 44.028 118.093 44.368 119.113 45.184 120.065C 46 120.881 46.952 121.289 48.04 121.289C 49.128 121.289 50.08 120.881 50.896 120.065C 51.5694 119.392 51.9649 118.626 52.0826 117.767C 52.6771 118.115 53.3295 118.289 54.04 118.289C 55.128 118.289 56.08 117.881 56.896 117.065C 57.712 116.249 58.12 115.297 58.12 114.209C 58.392 107.681 56.488 102.309 52.408 98.0931C 50.4652 96.0208 48.1832 94.4419 45.5619 93.3564Z"/>
<path id="path1_fill" d="M 99.96 72.216C 102.408 76.568 104.108 81.328 105.06 86.496C 106.148 91.528 106.42 96.628 105.876 101.796C 105.196 107.1 103.768 112.268 101.592 117.3C 99.552 122.332 96.832 127.024 93.432 131.376C 90.032 135.728 86.088 139.604 81.6 143.004C 77.112 146.268 72.352 148.852 67.32 150.756C 64.192 151.844 60.792 152.66 57.12 153.204C 53.584 153.884 50.048 154.224 46.512 154.224C 44.608 154.224 42.772 154.088 41.004 153.816C 39.236 153.68 37.536 153.476 35.904 153.204C 26.656 150.892 19.176 146.336 13.464 139.536C 7.208 132.328 4.42 123.76 5.1 113.832C 5.372 109.616 6.12 105.672 7.344 102C 8.704 98.192 10.336 94.928 12.24 92.208C 17.68 84.592 25.16 80.784 34.68 80.784C 41.752 80.784 47.328 82.96 51.408 87.312C 55.488 91.528 57.392 96.9 57.12 103.428C 57.12 104.516 56.712 105.468 55.896 106.284C 55.08 107.1 54.128 107.508 53.04 107.508C 51.952 107.508 51 107.1 50.184 106.284C 49.368 105.332 49.028 104.312 49.164 103.224C 49.164 99.008 47.94 95.54 45.492 92.82C 42.908 90.236 39.304 88.944 34.68 88.944C 30.192 88.944 26.52 90.032 23.664 92.208C 20.944 94.248 18.836 96.696 17.34 99.552C 15.844 102.272 14.824 105.06 14.28 107.916C 13.736 110.772 13.396 112.948 13.26 114.444C 12.852 119.476 13.6 124.1 15.504 128.316C 17.544 132.532 20.264 136 23.664 138.72C 27.064 141.44 30.872 143.276 35.088 144.228C 39.44 145.044 43.724 144.636 47.94 143.004C 52.292 141.372 56.44 139.128 60.384 136.272C 64.328 133.416 67.728 130.084 70.584 126.276C 76.704 118.66 80.308 110.228 81.396 100.98C 81.94 96.628 81.736 92.344 80.784 88.128C 79.968 83.776 78.54 79.832 76.5 76.296C 72.284 68.816 66.232 63.444 58.344 60.18C 52.224 58.004 46.648 58.14 41.616 60.588C 36.72 63.036 31.688 66.64 26.52 71.4C 25.16 72.76 23.596 73.032 21.828 72.216C 20.06 71.128 19.38 69.632 19.788 67.728L 32.436 2.244C 32.708 1.156 33.252 0.272005 34.068 -0.407995C 35.02 -1.08799 36.04 -1.292 37.128 -1.02C 39.304 -0.747994 41.616 -0.476002 44.064 -0.203997C 46.104 0.0679951 48.484 0.34 51.204 0.612004C 53.924 0.883997 56.78 1.08799 59.772 1.224C 64.94 1.496 69.224 1.496 72.624 1.224C 76.16 0.952004 79.016 0.612004 81.192 0.203997C 83.368 -0.203997 85 -0.612004 86.088 -1.02C 87.312 -1.564 88.128 -2.04 88.536 -2.448C 89.216 -2.992 89.556 -3.536 89.556 -4.08C 89.692 -5.168 90.168 -6.052 90.984 -6.732C 91.936 -7.548 92.956 -7.888 94.044 -7.752C 95.132 -7.616 96.016 -7.072 96.696 -6.11999C 97.512 -5.304 97.852 -4.352 97.716 -3.26399C 97.58 -0.407995 96.22 2.04 93.636 4.08C 88.06 8.432 76.636 10.2 59.364 9.384C 58.684 9.248 58.072 9.18 57.528 9.18C 56.984 9.18 56.44 9.18 55.896 9.18L 48.552 49.98C 53.584 49.028 58.616 48.756 63.648 49.164C 68.68 49.572 73.372 50.728 77.724 52.632C 82.484 54.536 86.768 57.188 90.576 60.588C 94.384 63.988 97.512 67.864 99.96 72.216Z"/>
</defs>
</svg>
