<svg width="104" height="168" viewBox="0 0 104 168" version="1.1" xmlns="http://www.w3.org/2000/svg" xmlns:xlink="http://www.w3.org/1999/xlink">
<title>6</title>
<desc>Created using Figma</desc>
<g id="Canvas" transform="translate(-274 -1272)">
<g id="6">
<g id="Union">
<use xlink:href="#path0_fill" transform="translate(274.896 1277.98)"/>
</g>
<g id="6">
<use xlink:href="#path1_fill" transform="translate(270 1274)" fill="#FFFFFF"/>
</g>
</g>
</g>
<defs>
<path id="path0_fill" fill-rule="evenodd" d="M 90.78 7.344C 91.2228 7.81281 91.6406 8.29657 92.0335 8.7953C 93.0292 9.55468 93.9447 10.4042 94.78 11.344C 94.8575 11.426 94.9342 11.5085 95.0101 11.5915C 95.6354 12.1359 96.2254 12.72 96.78 13.344C 101.404 18.24 103.308 24.768 102.492 32.928C 102.356 34.016 101.88 34.968 101.064 35.784C 100.248 36.464 99.296 36.736 98.208 36.6C 97.12 36.464 96.168 35.988 95.352 35.172C 95.0627 34.8345 94.8332 34.4884 94.6636 34.1337C 94.193 33.8965 93.7559 33.5759 93.352 33.172C 92.6619 32.3669 92.3122 31.5132 92.303 30.6109C 92.2715 30.6076 92.2398 30.604 92.208 30.6C 91.12 30.464 90.168 29.988 89.352 29.172C 88.536 28.22 88.196 27.2 88.332 26.112C 88.604 24.616 88.536 22.576 88.128 19.992C 87.9885 18.5976 87.6346 17.2926 87.0663 16.0769C 86.1232 15.6712 85.1451 15.4403 84.132 15.384C 81.684 15.248 79.168 15.724 76.584 16.812C 74 17.9 71.348 19.464 68.628 21.504C 66.044 23.544 63.596 25.788 61.284 28.236C 58.972 30.548 56.864 32.86 54.96 35.172C 53.192 37.484 51.764 39.456 50.676 41.088C 46.596 47.208 43.06 53.94 40.068 61.284C 37.1266 68.37 34.8424 75.7189 33.2154 83.3306C 34.2658 82.9094 35.298 82.5365 36.312 82.212C 42.024 80.308 47.668 79.424 53.244 79.56C 58.82 79.696 63.988 80.784 68.748 82.824C 74.2239 85.1407 78.6806 88.3543 82.118 92.4649C 83.2123 93.3819 84.236 94.3612 85.1888 95.4027C 87.3944 97.4216 89.2861 99.7167 90.864 102.288C 94.536 108.272 95.896 114.868 94.944 122.076C 94.264 127.108 92.564 132.004 89.844 136.764C 87.124 141.524 83.588 145.672 79.236 149.208C 74.748 153.016 69.784 155.94 64.344 157.98C 58.904 160.02 53.328 161.04 47.616 161.04C 36.44 161.04 27.2929 157.214 20.175 149.561C 19.1497 148.609 18.1624 147.585 17.2132 146.49C 15.5253 145.037 13.9355 143.399 12.444 141.576C 8.772 137.088 5.984 132.192 4.08001 126.888C 2.312 121.448 1.08801 115.94 0.407982 110.364C -0.135994 104.652 -0.135994 98.94 0.407982 93.228C 0.951988 87.38 1.768 81.668 2.85601 76.092C 4.76 66.572 7.75201 57.392 11.832 48.552C 15.912 39.712 20.604 31.892 25.908 25.092C 32.436 16.796 39.508 10.54 47.124 6.324C 54.74 2.10799 62.764 0 71.196 0C 79.9 0 86.428 2.44801 90.78 7.344ZM 77.1408 99.4807C 75.4551 98.2946 73.5695 97.2583 71.484 96.372C 63.46 92.972 54.62 92.836 44.964 95.964C 42.516 96.78 40.068 97.8 37.62 99.024C 35.308 100.248 32.996 101.608 30.684 103.104C 30.412 110.448 31.024 117.248 32.52 123.504C 34.016 129.624 36.26 134.86 39.252 139.212C 39.5305 139.611 39.8115 139.999 40.0951 140.375C 42.3141 141.945 44.6571 142.958 47.124 143.412C 52.428 144.228 57.46 143.48 62.22 141.168C 66.98 138.856 71.06 135.32 74.46 130.56C 77.996 125.8 80.104 120.632 80.784 115.056C 81.464 109.616 80.444 104.72 77.724 100.368C 77.5361 100.067 77.3417 99.7716 77.1408 99.4807Z"/>
<path id="path1_fill" d="M 95.676 6.324C 100.3 11.22 102.204 17.748 101.388 25.908C 101.252 26.996 100.776 27.948 99.96 28.764C 99.144 29.444 98.192 29.716 97.104 29.58C 96.016 29.444 95.064 28.968 94.248 28.152C 93.432 27.2 93.092 26.18 93.228 25.092C 93.5 23.596 93.432 21.556 93.024 18.972C 92.752 16.252 91.664 13.872 89.76 11.832C 87.72 9.656 85.476 8.5 83.028 8.364C 80.58 8.228 78.064 8.704 75.48 9.792C 72.896 10.88 70.244 12.444 67.524 14.484C 64.94 16.524 62.492 18.768 60.18 21.216C 57.868 23.528 55.76 25.84 53.856 28.152C 52.088 30.464 50.66 32.436 49.572 34.068C 45.492 40.188 41.956 46.92 38.964 54.264C 35.972 61.472 33.66 68.952 32.028 76.704C 31.756 78.336 31.484 79.968 31.212 81.6C 30.94 83.096 30.668 84.592 30.396 86.088C 34.204 83.912 37.808 82.28 41.208 81.192C 46.92 79.288 52.564 78.404 58.14 78.54C 63.716 78.676 68.884 79.764 73.644 81.804C 80.716 84.796 86.088 89.284 89.76 95.268C 93.432 101.252 94.792 107.848 93.84 115.056C 93.16 120.088 91.46 124.984 88.74 129.744C 86.02 134.504 82.484 138.652 78.132 142.188C 73.644 145.996 68.68 148.92 63.24 150.96C 57.8 153 52.224 154.02 46.512 154.02C 34.408 154.02 24.684 149.532 17.34 140.556C 13.668 136.068 10.88 131.172 8.976 125.868C 7.208 120.428 5.984 114.92 5.304 109.344C 4.76 103.632 4.76 97.92 5.304 92.208C 5.848 86.36 6.664 80.648 7.752 75.072C 9.656 65.552 12.648 56.372 16.728 47.532C 20.808 38.692 25.5 30.872 30.804 24.072C 37.332 15.776 44.404 9.52 52.02 5.304C 59.636 1.088 67.66 -1.02 76.092 -1.02C 84.796 -1.02 91.324 1.428 95.676 6.324ZM 43.86 88.944C 41.412 89.76 38.964 90.78 36.516 92.004C 34.204 93.228 31.892 94.588 29.58 96.084C 29.308 103.428 29.92 110.228 31.416 116.484C 32.912 122.604 35.156 127.84 38.148 132.192C 42.228 138.04 46.852 141.44 52.02 142.392C 57.324 143.208 62.356 142.46 67.116 140.148C 71.876 137.836 75.956 134.3 79.356 129.54C 82.892 124.78 85 119.612 85.68 114.036C 86.36 108.596 85.34 103.7 82.62 99.348C 79.9 94.996 75.82 91.664 70.38 89.352C 62.356 85.952 53.516 85.816 43.86 88.944Z"/>
</defs>
</svg>
