<svg width="279" height="258" viewBox="0 0 279 258" version="1.1" xmlns="http://www.w3.org/2000/svg" xmlns:xlink="http://www.w3.org/1999/xlink" xmlns:figma="http://www.figma.com/figma/ns">
<title>red : BB3C3C green: 6FCF97 yellow: D5B965 purple : BFA8D4</title>
<desc>Created using Figma</desc>
<g id="Canvas" transform="translate(1118 -239)" figma:type="canvas">
<g id="red : BB3C3C green: 6FCF97 yellow: D5B965 purple : BFA8D4" figma:type="text">
<use xlink:href="#path0_fill" transform="translate(-1117 239)"/>
</g>
</g>
<defs>
<path id="path0_fill" d="M 2.394 12.101L 8.208 12.101L 8.208 15.179C 9.386 14.115 10.545 13.279 11.685 12.671C 12.825 12.063 14.231 11.759 15.903 11.759L 15.903 17.915C 15.333 17.687 14.744 17.573 14.136 17.573C 13.528 17.573 12.863 17.687 12.141 17.915C 11.457 18.105 10.811 18.447 10.203 18.941C 9.633 19.435 9.158 20.081 8.778 20.879C 8.398 21.677 8.208 22.665 8.208 23.843L 8.208 41L 2.394 41L 2.394 12.101ZM 23.5593 28.745L 23.5593 32.678C 23.5593 33.59 23.8063 34.293 24.3003 34.787C 24.8323 35.281 25.5353 35.528 26.4093 35.528C 27.5113 35.528 28.2333 35.205 28.5753 34.559C 28.9553 33.913 29.1833 33.267 29.2593 32.621L 35.0733 32.621C 35.0733 33.837 34.8643 34.977 34.4463 36.041C 34.0663 37.105 33.4963 38.017 32.7363 38.777C 31.9763 39.575 31.0643 40.202 30.0003 40.658C 28.9363 41.114 27.7393 41.342 26.4093 41.342C 24.6233 41.342 23.0843 40.962 21.7923 40.202C 20.5003 39.442 19.5123 38.435 18.8283 37.181C 18.4103 36.421 18.1253 35.547 17.9733 34.559C 17.8213 33.571 17.7453 32.488 17.7453 31.31L 17.7453 21.791C 17.7453 20.613 17.8213 19.53 17.9733 18.542C 18.1253 17.554 18.4103 16.68 18.8283 15.92C 19.5123 14.666 20.5003 13.659 21.7923 12.899C 23.0843 12.139 24.6233 11.759 26.4093 11.759C 27.7393 11.759 28.9363 11.987 30.0003 12.443C 31.1023 12.899 32.0143 13.545 32.7363 14.381C 33.4963 15.179 34.0663 16.129 34.4463 17.231C 34.8643 18.333 35.0733 19.511 35.0733 20.765L 35.0733 28.745L 23.5593 28.745ZM 23.5593 24.185L 29.2593 24.185L 29.2593 20.879C 29.2593 19.777 28.9933 18.96 28.4613 18.428C 27.9673 17.858 27.2833 17.573 26.4093 17.573C 25.5353 17.573 24.8323 17.858 24.3003 18.428C 23.8063 18.96 23.5593 19.777 23.5593 20.879L 23.5593 24.185ZM 45.1689 31.595C 45.1689 32.773 45.3969 33.723 45.8529 34.445C 46.3089 35.167 47.0309 35.528 48.0189 35.528C 48.8929 35.528 49.5959 35.205 50.1279 34.559C 50.6599 33.875 50.9259 33.001 50.9259 31.937L 50.9259 20.708C 50.9259 19.796 50.6409 19.055 50.0709 18.485C 49.5389 17.877 48.8549 17.573 48.0189 17.573C 46.9169 17.573 46.1569 17.915 45.7389 18.599C 45.3589 19.283 45.1689 20.081 45.1689 20.993L 45.1689 31.595ZM 50.9259 38.378C 50.5459 38.796 50.1849 39.195 49.8429 39.575C 49.5009 39.917 49.1209 40.221 48.7029 40.487C 48.2849 40.753 47.8099 40.962 47.2779 41.114C 46.7459 41.266 46.1189 41.342 45.3969 41.342C 43.0029 41.342 41.3119 40.43 40.3239 38.606C 39.9819 37.96 39.7349 37.162 39.5829 36.212C 39.4309 35.262 39.3549 33.989 39.3549 32.393L 39.3549 21.392C 39.3549 19.302 39.4119 17.763 39.5259 16.775C 39.6399 15.787 39.8869 14.989 40.2669 14.381C 40.7609 13.621 41.3879 12.994 42.1479 12.5C 42.9459 12.006 44.0479 11.759 45.4539 11.759C 46.5939 11.759 47.6009 12.025 48.4749 12.557C 49.3869 13.051 50.1659 13.773 50.8119 14.723L 50.9259 14.723L 50.9259 0.416L 56.7399 0.416L 56.7399 41L 50.9259 41L 50.9259 38.378ZM 72.0854 35.186L 77.8994 35.186L 77.8994 41L 72.0854 41L 72.0854 35.186ZM 72.0854 22.247L 77.8994 22.247L 77.8994 28.061L 72.0854 28.061L 72.0854 22.247ZM 93.5798 0.416L 102.073 0.416C 103.935 0.416 105.512 0.701 106.804 1.271C 108.134 1.841 109.217 2.601 110.053 3.551C 110.889 4.501 111.478 5.603 111.82 6.857C 112.2 8.073 112.39 9.346 112.39 10.676L 112.39 12.158C 112.39 13.26 112.295 14.191 112.105 14.951C 111.953 15.711 111.706 16.376 111.364 16.946C 111.022 17.516 110.604 18.029 110.11 18.485C 109.616 18.903 109.046 19.302 108.4 19.682C 109.768 20.328 110.775 21.297 111.421 22.589C 112.067 23.843 112.39 25.534 112.39 27.662L 112.39 29.942C 112.39 33.514 111.516 36.25 109.768 38.15C 108.058 40.05 105.303 41 101.503 41L 93.5798 41L 93.5798 0.416ZM 99.3937 35.186L 101.902 35.186C 103.08 35.186 103.992 35.015 104.638 34.673C 105.322 34.331 105.835 33.856 106.177 33.248C 106.519 32.64 106.728 31.918 106.804 31.082C 106.88 30.246 106.918 29.334 106.918 28.346C 106.918 27.32 106.861 26.427 106.747 25.667C 106.633 24.907 106.386 24.28 106.006 23.786C 105.664 23.254 105.17 22.855 104.524 22.589C 103.878 22.323 103.023 22.19 101.959 22.19L 99.3937 22.19L 99.3937 35.186ZM 99.3937 17.06L 102.016 17.06C 103.954 17.06 105.246 16.585 105.892 15.635C 106.576 14.647 106.918 13.222 106.918 11.36C 106.918 9.536 106.538 8.168 105.778 7.256C 105.056 6.344 103.726 5.888 101.788 5.888L 99.3937 5.888L 99.3937 17.06ZM 117.849 0.416L 126.342 0.416C 128.204 0.416 129.781 0.701 131.073 1.271C 132.403 1.841 133.486 2.601 134.322 3.551C 135.158 4.501 135.747 5.603 136.089 6.857C 136.469 8.073 136.659 9.346 136.659 10.676L 136.659 12.158C 136.659 13.26 136.564 14.191 136.374 14.951C 136.222 15.711 135.975 16.376 135.633 16.946C 135.291 17.516 134.873 18.029 134.379 18.485C 133.885 18.903 133.315 19.302 132.669 19.682C 134.037 20.328 135.044 21.297 135.69 22.589C 136.336 23.843 136.659 25.534 136.659 27.662L 136.659 29.942C 136.659 33.514 135.785 36.25 134.037 38.15C 132.327 40.05 129.572 41 125.772 41L 117.849 41L 117.849 0.416ZM 123.663 35.186L 126.171 35.186C 127.349 35.186 128.261 35.015 128.907 34.673C 129.591 34.331 130.104 33.856 130.446 33.248C 130.788 32.64 130.997 31.918 131.073 31.082C 131.149 30.246 131.187 29.334 131.187 28.346C 131.187 27.32 131.13 26.427 131.016 25.667C 130.902 24.907 130.655 24.28 130.275 23.786C 129.933 23.254 129.439 22.855 128.793 22.589C 128.147 22.323 127.292 22.19 126.228 22.19L 123.663 22.19L 123.663 35.186ZM 123.663 17.06L 126.285 17.06C 128.223 17.06 129.515 16.585 130.161 15.635C 130.845 14.647 131.187 13.222 131.187 11.36C 131.187 9.536 130.807 8.168 130.047 7.256C 129.325 6.344 127.995 5.888 126.057 5.888L 123.663 5.888L 123.663 17.06ZM 148.218 17.516C 149.966 17.516 151.163 17.307 151.809 16.889C 152.493 16.471 152.835 15.502 152.835 13.982L 152.835 8.738C 152.835 7.902 152.569 7.218 152.037 6.686C 151.543 6.154 150.859 5.888 149.985 5.888C 148.959 5.888 148.218 6.211 147.762 6.857C 147.344 7.503 147.135 8.13 147.135 8.738L 147.135 12.044L 141.321 12.044L 141.321 8.681C 141.321 7.503 141.549 6.382 142.005 5.318C 142.461 4.254 143.088 3.342 143.886 2.582C 144.684 1.822 145.615 1.214 146.679 0.758C 147.743 0.302 148.883 0.074 150.099 0.074C 151.695 0.074 153.006 0.397 154.032 1.043C 155.096 1.651 155.894 2.278 156.426 2.924C 156.806 3.38 157.129 3.855 157.395 4.349C 157.699 4.805 157.927 5.356 158.079 6.002C 158.269 6.61 158.402 7.37 158.478 8.282C 158.592 9.156 158.649 10.239 158.649 11.531C 158.649 12.937 158.611 14.077 158.535 14.951C 158.497 15.825 158.345 16.566 158.079 17.174C 157.851 17.744 157.49 18.238 156.996 18.656C 156.54 19.074 155.894 19.53 155.058 20.024C 155.97 20.594 156.654 21.126 157.11 21.62C 157.604 22.114 157.965 22.703 158.193 23.387C 158.421 24.033 158.554 24.831 158.592 25.781C 158.63 26.693 158.649 27.871 158.649 29.315C 158.649 30.645 158.611 31.747 158.535 32.621C 158.497 33.495 158.421 34.236 158.307 34.844C 158.193 35.414 158.041 35.908 157.851 36.326C 157.661 36.744 157.414 37.181 157.11 37.637C 156.388 38.701 155.457 39.594 154.317 40.316C 153.177 41 151.714 41.342 149.928 41.342C 149.016 41.342 148.047 41.19 147.021 40.886C 145.995 40.582 145.064 40.088 144.228 39.404C 143.392 38.72 142.689 37.827 142.119 36.725C 141.587 35.623 141.321 34.274 141.321 32.678L 141.321 29.372L 147.135 29.372L 147.135 32.393C 147.135 33.305 147.382 34.065 147.876 34.673C 148.408 35.243 149.111 35.528 149.985 35.528C 150.859 35.528 151.543 35.243 152.037 34.673C 152.569 34.065 152.835 33.267 152.835 32.279L 152.835 26.465C 152.835 25.667 152.759 25.021 152.607 24.527C 152.493 24.033 152.265 23.653 151.923 23.387C 151.581 23.083 151.106 22.893 150.498 22.817C 149.928 22.703 149.168 22.646 148.218 22.646L 148.218 17.516ZM 181.795 31.937C 181.795 33.191 181.548 34.388 181.054 35.528C 180.598 36.668 179.952 37.675 179.116 38.549C 178.28 39.385 177.292 40.069 176.152 40.601C 175.05 41.095 173.853 41.342 172.561 41.342C 171.459 41.342 170.338 41.19 169.198 40.886C 168.058 40.582 167.032 40.069 166.12 39.347C 165.208 38.587 164.448 37.599 163.84 36.383C 163.27 35.167 162.985 33.628 162.985 31.766L 162.985 9.422C 162.985 8.092 163.213 6.857 163.669 5.717C 164.125 4.577 164.771 3.589 165.607 2.753C 166.443 1.917 167.431 1.271 168.571 0.815C 169.749 0.321 171.041 0.074 172.447 0.074C 173.777 0.074 175.012 0.321 176.152 0.815C 177.292 1.271 178.28 1.936 179.116 2.81C 179.952 3.646 180.598 4.672 181.054 5.888C 181.548 7.066 181.795 8.358 181.795 9.764L 181.795 12.044L 175.981 12.044L 175.981 10.106C 175.981 8.966 175.658 7.978 175.012 7.142C 174.366 6.306 173.492 5.888 172.39 5.888C 170.946 5.888 169.977 6.344 169.483 7.256C 169.027 8.13 168.799 9.251 168.799 10.619L 168.799 31.367C 168.799 32.545 169.046 33.533 169.54 34.331C 170.072 35.129 171.003 35.528 172.333 35.528C 172.713 35.528 173.112 35.471 173.53 35.357C 173.986 35.205 174.385 34.977 174.727 34.673C 175.107 34.369 175.411 33.951 175.639 33.419C 175.867 32.887 175.981 32.222 175.981 31.424L 175.981 29.429L 181.795 29.429L 181.795 31.937ZM 192.638 17.516C 194.386 17.516 195.583 17.307 196.229 16.889C 196.913 16.471 197.255 15.502 197.255 13.982L 197.255 8.738C 197.255 7.902 196.989 7.218 196.457 6.686C 195.963 6.154 195.279 5.888 194.405 5.888C 193.379 5.888 192.638 6.211 192.182 6.857C 191.764 7.503 191.555 8.13 191.555 8.738L 191.555 12.044L 185.741 12.044L 185.741 8.681C 185.741 7.503 185.969 6.382 186.425 5.318C 186.881 4.254 187.508 3.342 188.306 2.582C 189.104 1.822 190.035 1.214 191.099 0.758C 192.163 0.302 193.303 0.074 194.519 0.074C 196.115 0.074 197.426 0.397 198.452 1.043C 199.516 1.651 200.314 2.278 200.846 2.924C 201.226 3.38 201.549 3.855 201.815 4.349C 202.119 4.805 202.347 5.356 202.499 6.002C 202.689 6.61 202.822 7.37 202.898 8.282C 203.012 9.156 203.069 10.239 203.069 11.531C 203.069 12.937 203.031 14.077 202.955 14.951C 202.917 15.825 202.765 16.566 202.499 17.174C 202.271 17.744 201.91 18.238 201.416 18.656C 200.96 19.074 200.314 19.53 199.478 20.024C 200.39 20.594 201.074 21.126 201.53 21.62C 202.024 22.114 202.385 22.703 202.613 23.387C 202.841 24.033 202.974 24.831 203.012 25.781C 203.05 26.693 203.069 27.871 203.069 29.315C 203.069 30.645 203.031 31.747 202.955 32.621C 202.917 33.495 202.841 34.236 202.727 34.844C 202.613 35.414 202.461 35.908 202.271 36.326C 202.081 36.744 201.834 37.181 201.53 37.637C 200.808 38.701 199.877 39.594 198.737 40.316C 197.597 41 196.134 41.342 194.348 41.342C 193.436 41.342 192.467 41.19 191.441 40.886C 190.415 40.582 189.484 40.088 188.648 39.404C 187.812 38.72 187.109 37.827 186.539 36.725C 186.007 35.623 185.741 34.274 185.741 32.678L 185.741 29.372L 191.555 29.372L 191.555 32.393C 191.555 33.305 191.802 34.065 192.296 34.673C 192.828 35.243 193.531 35.528 194.405 35.528C 195.279 35.528 195.963 35.243 196.457 34.673C 196.989 34.065 197.255 33.267 197.255 32.279L 197.255 26.465C 197.255 25.667 197.179 25.021 197.027 24.527C 196.913 24.033 196.685 23.653 196.343 23.387C 196.001 23.083 195.526 22.893 194.918 22.817C 194.348 22.703 193.588 22.646 192.638 22.646L 192.638 17.516ZM 226.215 31.937C 226.215 33.191 225.968 34.388 225.474 35.528C 225.018 36.668 224.372 37.675 223.536 38.549C 222.7 39.385 221.712 40.069 220.572 40.601C 219.47 41.095 218.273 41.342 216.981 41.342C 215.879 41.342 214.758 41.19 213.618 40.886C 212.478 40.582 211.452 40.069 210.54 39.347C 209.628 38.587 208.868 37.599 208.26 36.383C 207.69 35.167 207.405 33.628 207.405 31.766L 207.405 9.422C 207.405 8.092 207.633 6.857 208.089 5.717C 208.545 4.577 209.191 3.589 210.027 2.753C 210.863 1.917 211.851 1.271 212.991 0.815C 214.169 0.321 215.461 0.074 216.867 0.074C 218.197 0.074 219.432 0.321 220.572 0.815C 221.712 1.271 222.7 1.936 223.536 2.81C 224.372 3.646 225.018 4.672 225.474 5.888C 225.968 7.066 226.215 8.358 226.215 9.764L 226.215 12.044L 220.401 12.044L 220.401 10.106C 220.401 8.966 220.078 7.978 219.432 7.142C 218.786 6.306 217.912 5.888 216.81 5.888C 215.366 5.888 214.397 6.344 213.903 7.256C 213.447 8.13 213.219 9.251 213.219 10.619L 213.219 31.367C 213.219 32.545 213.466 33.533 213.96 34.331C 214.492 35.129 215.423 35.528 216.753 35.528C 217.133 35.528 217.532 35.471 217.95 35.357C 218.406 35.205 218.805 34.977 219.147 34.673C 219.527 34.369 219.831 33.951 220.059 33.419C 220.287 32.887 220.401 32.222 220.401 31.424L 220.401 29.429L 226.215 29.429L 226.215 31.937ZM 8.208 112.363C 8.246 113.047 8.512 113.693 9.006 114.301C 9.538 114.909 10.298 115.213 11.286 115.213C 12.236 115.213 12.92 114.909 13.338 114.301C 13.756 113.731 13.965 112.99 13.965 112.078L 13.965 106.378L 13.851 106.378C 13.205 107.328 12.426 108.069 11.514 108.601C 10.64 109.095 9.614 109.342 8.436 109.342C 6.042 109.342 4.351 108.43 3.363 106.606C 3.021 105.96 2.774 105.162 2.622 104.212C 2.47 103.262 2.394 101.989 2.394 100.393L 2.394 89.392C 2.394 87.302 2.451 85.763 2.565 84.775C 2.679 83.787 2.926 82.989 3.306 82.381C 3.8 81.621 4.427 80.994 5.187 80.5C 5.985 80.006 7.087 79.759 8.493 79.759C 9.215 79.759 9.823 79.835 10.317 79.987C 10.849 80.139 11.324 80.348 11.742 80.614C 12.16 80.88 12.54 81.203 12.882 81.583C 13.224 81.925 13.585 82.305 13.965 82.723L 13.965 80.101L 19.779 80.101L 19.779 112.534C 19.779 113.522 19.608 114.51 19.266 115.498C 18.962 116.524 18.449 117.436 17.727 118.234C 17.005 119.07 16.093 119.735 14.991 120.229C 13.889 120.761 12.578 121.027 11.058 121.027C 10.184 121.027 9.272 120.875 8.322 120.571C 7.372 120.305 6.479 119.83 5.643 119.146C 4.845 118.5 4.142 117.626 3.534 116.524C 2.964 115.422 2.584 114.035 2.394 112.363L 8.208 112.363ZM 8.208 100.108C 8.208 101.02 8.398 101.818 8.778 102.502C 9.196 103.186 9.956 103.528 11.058 103.528C 11.894 103.528 12.578 103.243 13.11 102.673C 13.68 102.065 13.965 101.305 13.965 100.393L 13.965 89.164C 13.965 88.1 13.699 87.245 13.167 86.599C 12.635 85.915 11.932 85.573 11.058 85.573C 10.07 85.573 9.348 85.934 8.892 86.656C 8.436 87.378 8.208 88.328 8.208 89.506L 8.208 100.108ZM 24.5483 80.101L 30.3623 80.101L 30.3623 83.179C 31.5403 82.115 32.6993 81.279 33.8393 80.671C 34.9793 80.063 36.3853 79.759 38.0573 79.759L 38.0573 85.915C 37.4873 85.687 36.8983 85.573 36.2903 85.573C 35.6823 85.573 35.0173 85.687 34.2953 85.915C 33.6113 86.105 32.9653 86.447 32.3573 86.941C 31.7873 87.435 31.3123 88.081 30.9323 88.879C 30.5523 89.677 30.3623 90.665 30.3623 91.843L 30.3623 109L 24.5483 109L 24.5483 80.101ZM 45.7136 96.745L 45.7136 100.678C 45.7136 101.59 45.9606 102.293 46.4546 102.787C 46.9866 103.281 47.6896 103.528 48.5636 103.528C 49.6656 103.528 50.3876 103.205 50.7296 102.559C 51.1096 101.913 51.3376 101.267 51.4136 100.621L 57.2276 100.621C 57.2276 101.837 57.0186 102.977 56.6006 104.041C 56.2206 105.105 55.6506 106.017 54.8906 106.777C 54.1306 107.575 53.2186 108.202 52.1546 108.658C 51.0906 109.114 49.8936 109.342 48.5636 109.342C 46.7776 109.342 45.2386 108.962 43.9466 108.202C 42.6546 107.442 41.6666 106.435 40.9826 105.181C 40.5646 104.421 40.2796 103.547 40.1276 102.559C 39.9756 101.571 39.8996 100.488 39.8996 99.31L 39.8996 89.791C 39.8996 88.613 39.9756 87.53 40.1276 86.542C 40.2796 85.554 40.5646 84.68 40.9826 83.92C 41.6666 82.666 42.6546 81.659 43.9466 80.899C 45.2386 80.139 46.7776 79.759 48.5636 79.759C 49.8936 79.759 51.0906 79.987 52.1546 80.443C 53.2566 80.899 54.1686 81.545 54.8906 82.381C 55.6506 83.179 56.2206 84.129 56.6006 85.231C 57.0186 86.333 57.2276 87.511 57.2276 88.765L 57.2276 96.745L 45.7136 96.745ZM 45.7136 92.185L 51.4136 92.185L 51.4136 88.879C 51.4136 87.777 51.1476 86.96 50.6156 86.428C 50.1216 85.858 49.4376 85.573 48.5636 85.573C 47.6896 85.573 46.9866 85.858 46.4546 86.428C 45.9606 86.96 45.7136 87.777 45.7136 88.879L 45.7136 92.185ZM 66.8102 96.745L 66.8102 100.678C 66.8102 101.59 67.0572 102.293 67.5512 102.787C 68.0832 103.281 68.7862 103.528 69.6602 103.528C 70.7622 103.528 71.4842 103.205 71.8262 102.559C 72.2062 101.913 72.4342 101.267 72.5102 100.621L 78.3242 100.621C 78.3242 101.837 78.1152 102.977 77.6972 104.041C 77.3172 105.105 76.7472 106.017 75.9872 106.777C 75.2272 107.575 74.3152 108.202 73.2512 108.658C 72.1872 109.114 70.9902 109.342 69.6602 109.342C 67.8742 109.342 66.3352 108.962 65.0432 108.202C 63.7512 107.442 62.7632 106.435 62.0792 105.181C 61.6612 104.421 61.3762 103.547 61.2242 102.559C 61.0722 101.571 60.9962 100.488 60.9962 99.31L 60.9962 89.791C 60.9962 88.613 61.0722 87.53 61.2242 86.542C 61.3762 85.554 61.6612 84.68 62.0792 83.92C 62.7632 82.666 63.7512 81.659 65.0432 80.899C 66.3352 80.139 67.8742 79.759 69.6602 79.759C 70.9902 79.759 72.1872 79.987 73.2512 80.443C 74.3532 80.899 75.2652 81.545 75.9872 82.381C 76.7472 83.179 77.3172 84.129 77.6972 85.231C 78.1152 86.333 78.3242 87.511 78.3242 88.765L 78.3242 96.745L 66.8102 96.745ZM 66.8102 92.185L 72.5102 92.185L 72.5102 88.879C 72.5102 87.777 72.2442 86.96 71.7122 86.428C 71.2182 85.858 70.5342 85.573 69.6602 85.573C 68.7862 85.573 68.0832 85.858 67.5512 86.428C 67.0572 86.96 66.8102 87.777 66.8102 88.879L 66.8102 92.185ZM 82.6059 80.101L 88.4199 80.101L 88.4199 82.894L 88.5339 82.894C 89.1419 81.982 89.8639 81.241 90.6999 80.671C 91.5739 80.063 92.6759 79.759 94.0059 79.759C 94.7279 79.759 95.4499 79.892 96.1719 80.158C 96.8939 80.386 97.5399 80.785 98.1099 81.355C 98.6799 81.925 99.1359 82.666 99.4779 83.578C 99.8199 84.452 99.9909 85.535 99.9909 86.827L 99.9909 109L 94.1769 109L 94.1769 88.993C 94.1769 87.929 93.9299 87.093 93.4359 86.485C 92.9419 85.877 92.2389 85.573 91.3269 85.573C 90.2249 85.573 89.4649 85.915 89.0469 86.599C 88.6289 87.283 88.4199 88.271 88.4199 89.563L 88.4199 109L 82.6059 109L 82.6059 80.101ZM 104.76 103.186L 110.574 103.186L 110.574 109L 104.76 109L 104.76 103.186ZM 104.76 90.247L 110.574 90.247L 110.574 96.061L 104.76 96.061L 104.76 90.247ZM 134.064 85.459L 134.178 85.573C 134.368 85.421 134.653 85.307 135.033 85.231C 135.451 85.117 135.983 85.06 136.629 85.06C 137.655 85.06 138.605 85.307 139.479 85.801C 140.353 86.295 141.037 86.922 141.531 87.682C 141.797 88.1 142.006 88.518 142.158 88.936C 142.31 89.354 142.424 89.905 142.5 90.589C 142.614 91.273 142.69 92.147 142.728 93.211C 142.766 94.237 142.785 95.548 142.785 97.144C 142.785 98.474 142.766 99.576 142.728 100.45C 142.69 101.286 142.614 102.008 142.5 102.616C 142.424 103.186 142.291 103.68 142.101 104.098C 141.949 104.516 141.74 104.953 141.474 105.409C 140.714 106.663 139.688 107.632 138.396 108.316C 137.142 109 135.717 109.342 134.121 109.342C 132.525 109.342 131.1 109 129.846 108.316C 128.592 107.594 127.585 106.625 126.825 105.409C 126.521 104.953 126.274 104.516 126.084 104.098C 125.932 103.68 125.799 103.186 125.685 102.616C 125.609 102.008 125.552 101.286 125.514 100.45C 125.476 99.576 125.457 98.474 125.457 97.144C 125.457 95.89 125.476 94.864 125.514 94.066C 125.552 93.23 125.609 92.527 125.685 91.957C 125.761 91.349 125.875 90.817 126.027 90.361C 126.179 89.867 126.35 89.354 126.54 88.822L 134.178 68.416L 140.676 68.416L 134.064 85.459ZM 136.971 93.097C 136.971 92.223 136.686 91.52 136.116 90.988C 135.546 90.456 134.881 90.19 134.121 90.19C 133.361 90.19 132.696 90.456 132.126 90.988C 131.556 91.52 131.271 92.223 131.271 93.097L 131.271 100.621C 131.271 101.495 131.556 102.198 132.126 102.73C 132.696 103.262 133.361 103.528 134.121 103.528C 134.881 103.528 135.546 103.262 136.116 102.73C 136.686 102.198 136.971 101.495 136.971 100.621L 136.971 93.097ZM 147.463 68.416L 164.791 68.416L 164.791 73.888L 153.277 73.888L 153.277 86.2L 163.309 86.2L 163.309 91.672L 153.277 91.672L 153.277 109L 147.463 109L 147.463 68.416ZM 187.027 99.937C 187.027 101.191 186.78 102.388 186.286 103.528C 185.83 104.668 185.184 105.675 184.348 106.549C 183.512 107.385 182.524 108.069 181.384 108.601C 180.282 109.095 179.085 109.342 177.793 109.342C 176.691 109.342 175.57 109.19 174.43 108.886C 173.29 108.582 172.264 108.069 171.352 107.347C 170.44 106.587 169.68 105.599 169.072 104.383C 168.502 103.167 168.217 101.628 168.217 99.766L 168.217 77.422C 168.217 76.092 168.445 74.857 168.901 73.717C 169.357 72.577 170.003 71.589 170.839 70.753C 171.675 69.917 172.663 69.271 173.803 68.815C 174.981 68.321 176.273 68.074 177.679 68.074C 179.009 68.074 180.244 68.321 181.384 68.815C 182.524 69.271 183.512 69.936 184.348 70.81C 185.184 71.646 185.83 72.672 186.286 73.888C 186.78 75.066 187.027 76.358 187.027 77.764L 187.027 80.044L 181.213 80.044L 181.213 78.106C 181.213 76.966 180.89 75.978 180.244 75.142C 179.598 74.306 178.724 73.888 177.622 73.888C 176.178 73.888 175.209 74.344 174.715 75.256C 174.259 76.13 174.031 77.251 174.031 78.619L 174.031 99.367C 174.031 100.545 174.278 101.533 174.772 102.331C 175.304 103.129 176.235 103.528 177.565 103.528C 177.945 103.528 178.344 103.471 178.762 103.357C 179.218 103.205 179.617 102.977 179.959 102.673C 180.339 102.369 180.643 101.951 180.871 101.419C 181.099 100.887 181.213 100.222 181.213 99.424L 181.213 97.429L 187.027 97.429L 187.027 99.937ZM 191.771 68.416L 209.099 68.416L 209.099 73.888L 197.585 73.888L 197.585 86.2L 207.617 86.2L 207.617 91.672L 197.585 91.672L 197.585 109L 191.771 109L 191.771 68.416ZM 220.791 91.957L 220.677 91.843C 220.487 91.995 220.183 92.128 219.765 92.242C 219.385 92.318 218.872 92.356 218.226 92.356C 217.2 92.356 216.25 92.109 215.376 91.615C 214.502 91.121 213.818 90.494 213.324 89.734C 213.058 89.354 212.849 88.955 212.697 88.537C 212.545 88.081 212.412 87.511 212.298 86.827C 212.222 86.143 212.165 85.288 212.127 84.262C 212.089 83.198 212.07 81.868 212.07 80.272C 212.07 78.942 212.089 77.859 212.127 77.023C 212.165 76.149 212.222 75.427 212.298 74.857C 212.412 74.249 212.545 73.736 212.697 73.318C 212.887 72.9 213.115 72.463 213.381 72.007C 214.141 70.753 215.148 69.784 216.402 69.1C 217.694 68.416 219.138 68.074 220.734 68.074C 222.33 68.074 223.755 68.435 225.009 69.157C 226.263 69.841 227.27 70.791 228.03 72.007C 228.296 72.463 228.524 72.9 228.714 73.318C 228.904 73.736 229.037 74.249 229.113 74.857C 229.227 75.427 229.303 76.149 229.341 77.023C 229.379 77.859 229.398 78.942 229.398 80.272C 229.398 81.526 229.379 82.571 229.341 83.407C 229.303 84.205 229.227 84.908 229.113 85.516C 229.037 86.086 228.923 86.618 228.771 87.112C 228.657 87.568 228.505 88.062 228.315 88.594L 220.677 109L 214.179 109L 220.791 91.957ZM 217.884 84.319C 217.884 85.193 218.169 85.896 218.739 86.428C 219.309 86.96 219.974 87.226 220.734 87.226C 221.494 87.226 222.159 86.96 222.729 86.428C 223.299 85.896 223.584 85.193 223.584 84.319L 223.584 76.795C 223.584 75.921 223.299 75.218 222.729 74.686C 222.159 74.154 221.494 73.888 220.734 73.888C 219.974 73.888 219.309 74.154 218.739 74.686C 218.169 75.218 217.884 75.921 217.884 76.795L 217.884 84.319ZM 244.792 73.888L 238.408 73.888L 238.408 78.562L 233.278 78.562L 233.278 68.416L 250.606 68.416L 250.606 74.23L 240.745 109L 234.589 109L 244.792 73.888ZM 6.099 148.101L 10.089 166.113L 10.203 166.113L 14.136 148.101L 20.121 148.101L 11.799 182.016C 11.495 183.308 11.058 184.372 10.488 185.208C 9.956 186.082 9.329 186.766 8.607 187.26C 7.885 187.792 7.106 188.153 6.27 188.343C 5.472 188.571 4.636 188.685 3.762 188.685L 2.166 188.685L 2.166 183.213L 3.477 183.213C 4.047 183.213 4.541 183.137 4.959 182.985C 5.377 182.833 5.738 182.491 6.042 181.959C 6.384 181.465 6.688 180.705 6.954 179.679C 7.22 178.691 7.524 177.361 7.866 175.689L -0.057 148.101L 6.099 148.101ZM 27.4001 164.745L 27.4001 168.678C 27.4001 169.59 27.6471 170.293 28.1411 170.787C 28.6731 171.281 29.3761 171.528 30.2501 171.528C 31.3521 171.528 32.0741 171.205 32.4161 170.559C 32.7961 169.913 33.0241 169.267 33.1001 168.621L 38.9141 168.621C 38.9141 169.837 38.7051 170.977 38.2871 172.041C 37.9071 173.105 37.3371 174.017 36.5771 174.777C 35.8171 175.575 34.9051 176.202 33.8411 176.658C 32.7771 177.114 31.5801 177.342 30.2501 177.342C 28.4641 177.342 26.9251 176.962 25.6331 176.202C 24.3411 175.442 23.3531 174.435 22.6691 173.181C 22.2511 172.421 21.9661 171.547 21.8141 170.559C 21.6621 169.571 21.5861 168.488 21.5861 167.31L 21.5861 157.791C 21.5861 156.613 21.6621 155.53 21.8141 154.542C 21.9661 153.554 22.2511 152.68 22.6691 151.92C 23.3531 150.666 24.3411 149.659 25.6331 148.899C 26.9251 148.139 28.4641 147.759 30.2501 147.759C 31.5801 147.759 32.7771 147.987 33.8411 148.443C 34.9431 148.899 35.8551 149.545 36.5771 150.381C 37.3371 151.179 37.9071 152.129 38.2871 153.231C 38.7051 154.333 38.9141 155.511 38.9141 156.765L 38.9141 164.745L 27.4001 164.745ZM 27.4001 160.185L 33.1001 160.185L 33.1001 156.879C 33.1001 155.777 32.8341 154.96 32.3021 154.428C 31.8081 153.858 31.1241 153.573 30.2501 153.573C 29.3761 153.573 28.6731 153.858 28.1411 154.428C 27.6471 154.96 27.4001 155.777 27.4001 156.879L 27.4001 160.185ZM 42.8538 136.416L 48.6678 136.416L 48.6678 168.849C 48.6678 169.951 48.8578 170.711 49.2378 171.129C 49.6558 171.509 50.4158 171.756 51.5178 171.87L 51.5178 177.342C 50.1878 177.342 48.9718 177.228 47.8698 177C 46.8058 176.81 45.8938 176.43 45.1338 175.86C 44.4118 175.252 43.8418 174.416 43.4238 173.352C 43.0438 172.288 42.8538 170.92 42.8538 169.248L 42.8538 136.416ZM 53.4299 136.416L 59.2439 136.416L 59.2439 168.849C 59.2439 169.951 59.4339 170.711 59.8139 171.129C 60.2319 171.509 60.9919 171.756 62.0939 171.87L 62.0939 177.342C 60.7639 177.342 59.5479 177.228 58.4459 177C 57.3819 176.81 56.4699 176.43 55.7099 175.86C 54.9879 175.252 54.4179 174.416 53.9999 173.352C 53.6199 172.288 53.4299 170.92 53.4299 169.248L 53.4299 136.416ZM 63.8351 157.791C 63.8351 156.613 63.9111 155.53 64.0631 154.542C 64.2151 153.554 64.5001 152.68 64.9181 151.92C 65.6021 150.666 66.5901 149.659 67.8821 148.899C 69.1741 148.139 70.7131 147.759 72.4991 147.759C 74.2851 147.759 75.8241 148.139 77.1161 148.899C 78.4081 149.659 79.3961 150.666 80.0801 151.92C 80.4981 152.68 80.7831 153.554 80.9351 154.542C 81.0871 155.53 81.1631 156.613 81.1631 157.791L 81.1631 167.31C 81.1631 168.488 81.0871 169.571 80.9351 170.559C 80.7831 171.547 80.4981 172.421 80.0801 173.181C 79.3961 174.435 78.4081 175.442 77.1161 176.202C 75.8241 176.962 74.2851 177.342 72.4991 177.342C 70.7131 177.342 69.1741 176.962 67.8821 176.202C 66.5901 175.442 65.6021 174.435 64.9181 173.181C 64.5001 172.421 64.2151 171.547 64.0631 170.559C 63.9111 169.571 63.8351 168.488 63.8351 167.31L 63.8351 157.791ZM 69.6491 168.222C 69.6491 169.324 69.8961 170.16 70.3901 170.73C 70.9221 171.262 71.6251 171.528 72.4991 171.528C 73.3731 171.528 74.0571 171.262 74.5511 170.73C 75.0831 170.16 75.3491 169.324 75.3491 168.222L 75.3491 156.879C 75.3491 155.777 75.0831 154.96 74.5511 154.428C 74.0571 153.858 73.3731 153.573 72.4991 153.573C 71.6251 153.573 70.9221 153.858 70.3901 154.428C 69.8961 154.96 69.6491 155.777 69.6491 156.879L 69.6491 168.222ZM 106.372 177L 101.242 177L 98.0498 159.843L 97.9358 159.843L 94.7438 177L 89.6138 177L 82.7738 148.101L 88.9298 148.101L 92.4638 166.056L 92.5778 166.056L 95.8268 148.101L 100.387 148.101L 103.465 166.056L 103.579 166.056L 107.056 148.101L 113.212 148.101L 106.372 177ZM 115.67 171.186L 121.484 171.186L 121.484 177L 115.67 177L 115.67 171.186ZM 115.67 158.247L 121.484 158.247L 121.484 164.061L 115.67 164.061L 115.67 158.247ZM 137.165 136.416L 145.772 136.416C 149.078 136.416 151.605 137.347 153.353 139.209C 155.101 141.033 155.975 143.598 155.975 146.904L 155.975 165.885C 155.975 169.685 155.044 172.497 153.182 174.321C 151.358 176.107 148.717 177 145.259 177L 137.165 177L 137.165 136.416ZM 142.979 171.528L 145.658 171.528C 147.292 171.528 148.451 171.129 149.135 170.331C 149.819 169.495 150.161 168.203 150.161 166.455L 150.161 146.904C 150.161 145.308 149.838 144.073 149.192 143.199C 148.546 142.325 147.368 141.888 145.658 141.888L 142.979 141.888L 142.979 171.528ZM 177.964 141.888L 166.45 141.888L 166.45 152.832C 166.982 152.3 167.666 151.863 168.502 151.521C 169.338 151.141 170.269 150.951 171.295 150.951C 173.271 150.951 174.867 151.559 176.083 152.775C 177.337 153.991 177.964 155.777 177.964 158.133L 177.964 168.621C 177.964 169.989 177.717 171.205 177.223 172.269C 176.767 173.333 176.14 174.245 175.342 175.005C 174.544 175.765 173.613 176.354 172.549 176.772C 171.523 177.152 170.44 177.342 169.3 177.342C 168.16 177.342 167.058 177.152 165.994 176.772C 164.968 176.354 164.056 175.765 163.258 175.005C 162.46 174.245 161.814 173.333 161.32 172.269C 160.864 171.205 160.636 169.989 160.636 168.621L 160.636 166.911L 166.45 166.911L 166.45 168.393C 166.45 169.381 166.716 170.16 167.248 170.73C 167.818 171.262 168.54 171.528 169.414 171.528C 170.288 171.528 170.953 171.262 171.409 170.73C 171.903 170.198 172.15 169.457 172.15 168.507L 172.15 158.988C 172.15 158.19 171.884 157.506 171.352 156.936C 170.858 156.366 170.212 156.081 169.414 156.081C 168.92 156.081 168.502 156.176 168.16 156.366C 167.818 156.518 167.533 156.708 167.305 156.936C 167.077 157.164 166.887 157.411 166.735 157.677C 166.621 157.943 166.526 158.152 166.45 158.304L 161.32 158.304L 161.32 136.416L 177.964 136.416L 177.964 141.888ZM 182.642 136.416L 191.135 136.416C 192.997 136.416 194.574 136.701 195.866 137.271C 197.196 137.841 198.279 138.601 199.115 139.551C 199.951 140.501 200.54 141.603 200.882 142.857C 201.262 144.073 201.452 145.346 201.452 146.676L 201.452 148.158C 201.452 149.26 201.357 150.191 201.167 150.951C 201.015 151.711 200.768 152.376 200.426 152.946C 200.084 153.516 199.666 154.029 199.172 154.485C 198.678 154.903 198.108 155.302 197.462 155.682C 198.83 156.328 199.837 157.297 200.483 158.589C 201.129 159.843 201.452 161.534 201.452 163.662L 201.452 165.942C 201.452 169.514 200.578 172.25 198.83 174.15C 197.12 176.05 194.365 177 190.565 177L 182.642 177L 182.642 136.416ZM 188.456 171.186L 190.964 171.186C 192.142 171.186 193.054 171.015 193.7 170.673C 194.384 170.331 194.897 169.856 195.239 169.248C 195.581 168.64 195.79 167.918 195.866 167.082C 195.942 166.246 195.98 165.334 195.98 164.346C 195.98 163.32 195.923 162.427 195.809 161.667C 195.695 160.907 195.448 160.28 195.068 159.786C 194.726 159.254 194.232 158.855 193.586 158.589C 192.94 158.323 192.085 158.19 191.021 158.19L 188.456 158.19L 188.456 171.186ZM 188.456 153.06L 191.078 153.06C 193.016 153.06 194.308 152.585 194.954 151.635C 195.638 150.647 195.98 149.222 195.98 147.36C 195.98 145.536 195.6 144.168 194.84 143.256C 194.118 142.344 192.788 141.888 190.85 141.888L 188.456 141.888L 188.456 153.06ZM 214.835 159.957L 214.721 159.843C 214.531 159.995 214.227 160.128 213.809 160.242C 213.429 160.318 212.916 160.356 212.27 160.356C 211.244 160.356 210.294 160.109 209.42 159.615C 208.546 159.121 207.862 158.494 207.368 157.734C 207.102 157.354 206.893 156.955 206.741 156.537C 206.589 156.081 206.456 155.511 206.342 154.827C 206.266 154.143 206.209 153.288 206.171 152.262C 206.133 151.198 206.114 149.868 206.114 148.272C 206.114 146.942 206.133 145.859 206.171 145.023C 206.209 144.149 206.266 143.427 206.342 142.857C 206.456 142.249 206.589 141.736 206.741 141.318C 206.931 140.9 207.159 140.463 207.425 140.007C 208.185 138.753 209.192 137.784 210.446 137.1C 211.738 136.416 213.182 136.074 214.778 136.074C 216.374 136.074 217.799 136.435 219.053 137.157C 220.307 137.841 221.314 138.791 222.074 140.007C 222.34 140.463 222.568 140.9 222.758 141.318C 222.948 141.736 223.081 142.249 223.157 142.857C 223.271 143.427 223.347 144.149 223.385 145.023C 223.423 145.859 223.442 146.942 223.442 148.272C 223.442 149.526 223.423 150.571 223.385 151.407C 223.347 152.205 223.271 152.908 223.157 153.516C 223.081 154.086 222.967 154.618 222.815 155.112C 222.701 155.568 222.549 156.062 222.359 156.594L 214.721 177L 208.223 177L 214.835 159.957ZM 211.928 152.319C 211.928 153.193 212.213 153.896 212.783 154.428C 213.353 154.96 214.018 155.226 214.778 155.226C 215.538 155.226 216.203 154.96 216.773 154.428C 217.343 153.896 217.628 153.193 217.628 152.319L 217.628 144.795C 217.628 143.921 217.343 143.218 216.773 142.686C 216.203 142.154 215.538 141.888 214.778 141.888C 214.018 141.888 213.353 142.154 212.783 142.686C 212.213 143.218 211.928 143.921 211.928 144.795L 211.928 152.319ZM 235.929 153.459L 236.043 153.573C 236.233 153.421 236.518 153.307 236.898 153.231C 237.316 153.117 237.848 153.06 238.494 153.06C 239.52 153.06 240.47 153.307 241.344 153.801C 242.218 154.295 242.902 154.922 243.396 155.682C 243.662 156.1 243.871 156.518 244.023 156.936C 244.175 157.354 244.289 157.905 244.365 158.589C 244.479 159.273 244.555 160.147 244.593 161.211C 244.631 162.237 244.65 163.548 244.65 165.144C 244.65 166.474 244.631 167.576 244.593 168.45C 244.555 169.286 244.479 170.008 244.365 170.616C 244.289 171.186 244.156 171.68 243.966 172.098C 243.814 172.516 243.605 172.953 243.339 173.409C 242.579 174.663 241.553 175.632 240.261 176.316C 239.007 177 237.582 177.342 235.986 177.342C 234.39 177.342 232.965 177 231.711 176.316C 230.457 175.594 229.45 174.625 228.69 173.409C 228.386 172.953 228.139 172.516 227.949 172.098C 227.797 171.68 227.664 171.186 227.55 170.616C 227.474 170.008 227.417 169.286 227.379 168.45C 227.341 167.576 227.322 166.474 227.322 165.144C 227.322 163.89 227.341 162.864 227.379 162.066C 227.417 161.23 227.474 160.527 227.55 159.957C 227.626 159.349 227.74 158.817 227.892 158.361C 228.044 157.867 228.215 157.354 228.405 156.822L 236.043 136.416L 242.541 136.416L 235.929 153.459ZM 238.836 161.097C 238.836 160.223 238.551 159.52 237.981 158.988C 237.411 158.456 236.746 158.19 235.986 158.19C 235.226 158.19 234.561 158.456 233.991 158.988C 233.421 159.52 233.136 160.223 233.136 161.097L 233.136 168.621C 233.136 169.495 233.421 170.198 233.991 170.73C 234.561 171.262 235.226 171.528 235.986 171.528C 236.746 171.528 237.411 171.262 237.981 170.73C 238.551 170.198 238.836 169.495 238.836 168.621L 238.836 161.097ZM 265.858 141.888L 254.344 141.888L 254.344 152.832C 254.876 152.3 255.56 151.863 256.396 151.521C 257.232 151.141 258.163 150.951 259.189 150.951C 261.165 150.951 262.761 151.559 263.977 152.775C 265.231 153.991 265.858 155.777 265.858 158.133L 265.858 168.621C 265.858 169.989 265.611 171.205 265.117 172.269C 264.661 173.333 264.034 174.245 263.236 175.005C 262.438 175.765 261.507 176.354 260.443 176.772C 259.417 177.152 258.334 177.342 257.194 177.342C 256.054 177.342 254.952 177.152 253.888 176.772C 252.862 176.354 251.95 175.765 251.152 175.005C 250.354 174.245 249.708 173.333 249.214 172.269C 248.758 171.205 248.53 169.989 248.53 168.621L 248.53 166.911L 254.344 166.911L 254.344 168.393C 254.344 169.381 254.61 170.16 255.142 170.73C 255.712 171.262 256.434 171.528 257.308 171.528C 258.182 171.528 258.847 171.262 259.303 170.73C 259.797 170.198 260.044 169.457 260.044 168.507L 260.044 158.988C 260.044 158.19 259.778 157.506 259.246 156.936C 258.752 156.366 258.106 156.081 257.308 156.081C 256.814 156.081 256.396 156.176 256.054 156.366C 255.712 156.518 255.427 156.708 255.199 156.936C 254.971 157.164 254.781 157.411 254.629 157.677C 254.515 157.943 254.42 158.152 254.344 158.304L 249.214 158.304L 249.214 136.416L 265.858 136.416L 265.858 141.888ZM 2.394 217.101L 8.208 217.101L 8.208 219.723C 8.93 218.887 9.671 218.184 10.431 217.614C 11.191 217.044 12.293 216.759 13.737 216.759C 16.131 216.759 17.822 217.671 18.81 219.495C 19.152 220.141 19.399 220.939 19.551 221.889C 19.703 222.839 19.779 224.112 19.779 225.708L 19.779 236.709C 19.779 238.799 19.722 240.338 19.608 241.326C 19.494 242.314 19.247 243.112 18.867 243.72C 18.373 244.48 17.727 245.107 16.929 245.601C 16.169 246.095 15.086 246.342 13.68 246.342C 12.54 246.342 11.514 246.095 10.602 245.601C 9.728 245.069 8.968 244.328 8.322 243.378L 8.208 243.378L 8.208 257.685L 2.394 257.685L 2.394 217.101ZM 13.965 226.506C 13.965 225.328 13.737 224.378 13.281 223.656C 12.825 222.934 12.103 222.573 11.115 222.573C 10.241 222.573 9.538 222.915 9.006 223.599C 8.474 224.245 8.208 225.1 8.208 226.164L 8.208 237.393C 8.208 238.305 8.474 239.065 9.006 239.673C 9.576 240.243 10.279 240.528 11.115 240.528C 12.217 240.528 12.958 240.186 13.338 239.502C 13.756 238.818 13.965 238.02 13.965 237.108L 13.965 226.506ZM 41.9333 246L 36.1193 246L 36.1193 243.207L 36.0053 243.207C 35.3973 244.119 34.6563 244.879 33.7823 245.487C 32.9463 246.057 31.8633 246.342 30.5333 246.342C 29.8113 246.342 29.0893 246.228 28.3673 246C 27.6453 245.734 26.9993 245.316 26.4293 244.746C 25.8593 244.176 25.4033 243.454 25.0613 242.58C 24.7193 241.668 24.5483 240.566 24.5483 239.274L 24.5483 217.101L 30.3623 217.101L 30.3623 237.108C 30.3623 238.172 30.6093 239.008 31.1033 239.616C 31.5973 240.224 32.3003 240.528 33.2123 240.528C 34.3143 240.528 35.0743 240.186 35.4923 239.502C 35.9103 238.818 36.1193 237.83 36.1193 236.538L 36.1193 217.101L 41.9333 217.101L 41.9333 246ZM 46.7026 217.101L 52.5166 217.101L 52.5166 220.179C 53.6946 219.115 54.8536 218.279 55.9936 217.671C 57.1336 217.063 58.5396 216.759 60.2116 216.759L 60.2116 222.915C 59.6416 222.687 59.0526 222.573 58.4446 222.573C 57.8366 222.573 57.1716 222.687 56.4496 222.915C 55.7656 223.105 55.1196 223.447 54.5116 223.941C 53.9416 224.435 53.4666 225.081 53.0866 225.879C 52.7066 226.677 52.5166 227.665 52.5166 228.843L 52.5166 246L 46.7026 246L 46.7026 217.101ZM 62.5669 217.101L 68.3809 217.101L 68.3809 219.723C 69.1029 218.887 69.8439 218.184 70.6039 217.614C 71.3639 217.044 72.4659 216.759 73.9099 216.759C 76.3039 216.759 77.9949 217.671 78.9829 219.495C 79.3249 220.141 79.5719 220.939 79.7239 221.889C 79.8759 222.839 79.9519 224.112 79.9519 225.708L 79.9519 236.709C 79.9519 238.799 79.8949 240.338 79.7809 241.326C 79.6669 242.314 79.4199 243.112 79.0399 243.72C 78.5459 244.48 77.8999 245.107 77.1019 245.601C 76.3419 246.095 75.2589 246.342 73.8529 246.342C 72.7129 246.342 71.6869 246.095 70.7749 245.601C 69.9009 245.069 69.1409 244.328 68.4949 243.378L 68.3809 243.378L 68.3809 257.685L 62.5669 257.685L 62.5669 217.101ZM 74.1379 226.506C 74.1379 225.328 73.9099 224.378 73.4539 223.656C 72.9979 222.934 72.2759 222.573 71.2879 222.573C 70.4139 222.573 69.7109 222.915 69.1789 223.599C 68.6469 224.245 68.3809 225.1 68.3809 226.164L 68.3809 237.393C 68.3809 238.305 68.6469 239.065 69.1789 239.673C 69.7489 240.243 70.4519 240.528 71.2879 240.528C 72.3899 240.528 73.1309 240.186 73.5109 239.502C 73.9289 238.818 74.1379 238.02 74.1379 237.108L 74.1379 226.506ZM 84.3791 205.416L 90.1931 205.416L 90.1931 237.849C 90.1931 238.951 90.3831 239.711 90.7631 240.129C 91.1811 240.509 91.9411 240.756 93.0431 240.87L 93.0431 246.342C 91.7131 246.342 90.4971 246.228 89.3951 246C 88.3311 245.81 87.4191 245.43 86.6591 244.86C 85.9371 244.252 85.3671 243.416 84.9491 242.352C 84.5691 241.288 84.3791 239.92 84.3791 238.248L 84.3791 205.416ZM 100.598 233.745L 100.598 237.678C 100.598 238.59 100.845 239.293 101.339 239.787C 101.871 240.281 102.574 240.528 103.448 240.528C 104.55 240.528 105.272 240.205 105.614 239.559C 105.994 238.913 106.222 238.267 106.298 237.621L 112.112 237.621C 112.112 238.837 111.903 239.977 111.485 241.041C 111.105 242.105 110.535 243.017 109.775 243.777C 109.015 244.575 108.103 245.202 107.039 245.658C 105.975 246.114 104.778 246.342 103.448 246.342C 101.662 246.342 100.123 245.962 98.8313 245.202C 97.5393 244.442 96.5513 243.435 95.8673 242.181C 95.4493 241.421 95.1643 240.547 95.0123 239.559C 94.8603 238.571 94.7843 237.488 94.7843 236.31L 94.7843 226.791C 94.7843 225.613 94.8603 224.53 95.0123 223.542C 95.1643 222.554 95.4493 221.68 95.8673 220.92C 96.5513 219.666 97.5393 218.659 98.8313 217.899C 100.123 217.139 101.662 216.759 103.448 216.759C 104.778 216.759 105.975 216.987 107.039 217.443C 108.141 217.899 109.053 218.545 109.775 219.381C 110.535 220.179 111.105 221.129 111.485 222.231C 111.903 223.333 112.112 224.511 112.112 225.765L 112.112 233.745L 100.598 233.745ZM 100.598 229.185L 106.298 229.185L 106.298 225.879C 106.298 224.777 106.032 223.96 105.5 223.428C 105.006 222.858 104.322 222.573 103.448 222.573C 102.574 222.573 101.871 222.858 101.339 223.428C 100.845 223.96 100.598 224.777 100.598 225.879L 100.598 229.185ZM 126.97 240.186L 132.784 240.186L 132.784 246L 126.97 246L 126.97 240.186ZM 126.97 227.247L 132.784 227.247L 132.784 233.061L 126.97 233.061L 126.97 227.247ZM 148.465 205.416L 156.958 205.416C 158.82 205.416 160.397 205.701 161.689 206.271C 163.019 206.841 164.102 207.601 164.938 208.551C 165.774 209.501 166.363 210.603 166.705 211.857C 167.085 213.073 167.275 214.346 167.275 215.676L 167.275 217.158C 167.275 218.26 167.18 219.191 166.99 219.951C 166.838 220.711 166.591 221.376 166.249 221.946C 165.907 222.516 165.489 223.029 164.995 223.485C 164.501 223.903 163.931 224.302 163.285 224.682C 164.653 225.328 165.66 226.297 166.306 227.589C 166.952 228.843 167.275 230.534 167.275 232.662L 167.275 234.942C 167.275 238.514 166.401 241.25 164.653 243.15C 162.943 245.05 160.188 246 156.388 246L 148.465 246L 148.465 205.416ZM 154.279 240.186L 156.787 240.186C 157.965 240.186 158.877 240.015 159.523 239.673C 160.207 239.331 160.72 238.856 161.062 238.248C 161.404 237.64 161.613 236.918 161.689 236.082C 161.765 235.246 161.803 234.334 161.803 233.346C 161.803 232.32 161.746 231.427 161.632 230.667C 161.518 229.907 161.271 229.28 160.891 228.786C 160.549 228.254 160.055 227.855 159.409 227.589C 158.763 227.323 157.908 227.19 156.844 227.19L 154.279 227.19L 154.279 240.186ZM 154.279 222.06L 156.901 222.06C 158.839 222.06 160.131 221.585 160.777 220.635C 161.461 219.647 161.803 218.222 161.803 216.36C 161.803 214.536 161.423 213.168 160.663 212.256C 159.941 211.344 158.611 210.888 156.673 210.888L 154.279 210.888L 154.279 222.06ZM 172.734 205.416L 190.062 205.416L 190.062 210.888L 178.548 210.888L 178.548 223.2L 188.58 223.2L 188.58 228.672L 178.548 228.672L 178.548 246L 172.734 246L 172.734 205.416ZM 199.884 217.101L 199.77 217.101L 196.92 231.807L 202.734 231.807L 199.884 217.101ZM 197.433 205.416L 202.278 205.416L 211.341 246L 205.527 246L 203.817 237.279L 195.894 237.279L 194.184 246L 188.37 246L 197.433 205.416ZM 224.92 213.738C 224.92 212.94 224.635 212.275 224.065 211.743C 223.495 211.173 222.83 210.888 222.07 210.888C 221.31 210.888 220.645 211.173 220.075 211.743C 219.505 212.275 219.22 212.94 219.22 213.738L 219.22 219.666C 219.22 220.464 219.505 221.148 220.075 221.718C 220.645 222.25 221.31 222.516 222.07 222.516C 222.83 222.516 223.495 222.25 224.065 221.718C 224.635 221.148 224.92 220.464 224.92 219.666L 224.92 213.738ZM 213.406 216.018C 213.406 214.916 213.444 213.985 213.52 213.225C 213.596 212.427 213.71 211.743 213.862 211.173C 214.052 210.603 214.28 210.09 214.546 209.634C 214.812 209.178 215.135 208.703 215.515 208.209C 216.275 207.221 217.225 206.461 218.365 205.929C 219.505 205.359 220.74 205.074 222.07 205.074C 223.4 205.074 224.635 205.359 225.775 205.929C 226.915 206.461 227.865 207.221 228.625 208.209C 229.005 208.703 229.328 209.178 229.594 209.634C 229.86 210.09 230.069 210.603 230.221 211.173C 230.411 211.743 230.544 212.427 230.62 213.225C 230.696 213.985 230.734 214.916 230.734 216.018C 230.734 217.234 230.715 218.26 230.677 219.096C 230.639 219.932 230.525 220.673 230.335 221.319C 230.145 221.965 229.841 222.554 229.423 223.086C 229.043 223.58 228.511 224.112 227.827 224.682C 228.511 225.214 229.043 225.746 229.423 226.278C 229.841 226.81 230.145 227.437 230.335 228.159C 230.525 228.881 230.639 229.774 230.677 230.838C 230.715 231.864 230.734 233.137 230.734 234.657C 230.734 235.911 230.696 236.956 230.62 237.792C 230.582 238.59 230.506 239.293 230.392 239.901C 230.278 240.509 230.107 241.022 229.879 241.44C 229.689 241.858 229.442 242.295 229.138 242.751C 228.492 243.739 227.58 244.594 226.402 245.316C 225.224 246 223.78 246.342 222.07 246.342C 220.36 246.342 218.916 246 217.738 245.316C 216.56 244.594 215.648 243.739 215.002 242.751C 214.698 242.295 214.432 241.858 214.204 241.44C 214.014 241.022 213.862 240.509 213.748 239.901C 213.634 239.293 213.539 238.59 213.463 237.792C 213.425 236.956 213.406 235.911 213.406 234.657C 213.406 233.137 213.425 231.864 213.463 230.838C 213.501 229.774 213.615 228.881 213.805 228.159C 213.995 227.437 214.28 226.81 214.66 226.278C 215.078 225.746 215.629 225.214 216.313 224.682C 215.629 224.112 215.078 223.58 214.66 223.086C 214.28 222.554 213.995 221.965 213.805 221.319C 213.615 220.673 213.501 219.932 213.463 219.096C 213.425 218.26 213.406 217.234 213.406 216.018ZM 224.92 229.698C 224.92 228.9 224.635 228.235 224.065 227.703C 223.495 227.133 222.83 226.848 222.07 226.848C 221.31 226.848 220.645 227.133 220.075 227.703C 219.505 228.235 219.22 228.9 219.22 229.698L 219.22 237.678C 219.22 238.476 219.505 239.16 220.075 239.73C 220.645 240.262 221.31 240.528 222.07 240.528C 222.83 240.528 223.495 240.262 224.065 239.73C 224.635 239.16 224.92 238.476 224.92 237.678L 224.92 229.698ZM 235.412 205.416L 244.019 205.416C 247.325 205.416 249.852 206.347 251.6 208.209C 253.348 210.033 254.222 212.598 254.222 215.904L 254.222 234.885C 254.222 238.685 253.291 241.497 251.429 243.321C 249.605 245.107 246.964 246 243.506 246L 235.412 246L 235.412 205.416ZM 241.226 240.528L 243.905 240.528C 245.539 240.528 246.698 240.129 247.382 239.331C 248.066 238.495 248.408 237.203 248.408 235.455L 248.408 215.904C 248.408 214.308 248.085 213.073 247.439 212.199C 246.793 211.325 245.615 210.888 243.905 210.888L 241.226 210.888L 241.226 240.528ZM 269.029 239.958L 257.458 239.958L 257.458 234.486L 265.837 205.416L 271.993 205.416L 263.272 234.486L 269.029 234.486L 269.029 222.915L 274.843 222.915L 274.843 234.486L 277.636 234.486L 277.636 239.958L 274.843 239.958L 274.843 246L 269.029 246L 269.029 239.958Z"/>
</defs>
</svg>
